STARTFONT 2.1
FONT -tomabechi-proportional-medium-r-normal--18-180-75-75-P-145-MuleTibetan-2
SIZE 18 75 75
FONTBOUNDINGBOX 34 37 -4 -17
STARTPROPERTIES 26
FOUNDRY "tomabechi"
FAMILY_NAME "provided"
WEIGHT_NAME "medium"
SLANT "r"
SETWIDTH_NAME "normal"
ADD_STYLE_NAME ""
PIXEL_SIZE 18
POINT_SIZE 180
RESOLUTION_X 75
RESOLUTION_Y 75
SPACING "P"
AVERAGE_WIDTH 145
CHARSET_REGISTRY "MuleTibetan"
CHARSET_ENCODING "2"
STRIKEOUT_ASCENT 18
STRIKEOUT_DESCENT 10
X_HEIGHT 15
FACE_NAME "Mule Tibetan (16dots)"
COPYRIGHT "Original design (C) Toru Tomabechi 1999"
_XMBDFED_INFO "Edited with xmbdfed 4.2."
WEIGHT 10
RESOLUTION 75
QUAD_WIDTH 16
DEFAULT_CHAR 8481
FONT_ASCENT 20
FONT_DESCENT 9
ENDPROPERTIES
CHARS 377
STARTCHAR char8481
ENCODING 8481
SWIDTH 14000 0
DWIDTH 14 0
BBX 13 16 1 -1
BITMAP
FFF8
8008
8008
8008
8008
8008
8008
8008
8008
8008
8008
8008
8008
8008
8008
FFF8
ENDCHAR
STARTCHAR char9040
ENCODING 8482
SWIDTH 12000 0
DWIDTH 12 0
BBX 9 4 2 11
BITMAP
FF80
FF80
0800
0800
ENDCHAR
STARTCHAR char9041
ENCODING 8483
SWIDTH 16000 0
DWIDTH 16 0
BBX 14 10 3 2
BITMAP
1FF0
1000
23E0
7C10
0610
0020
FFC0
6004
3C38
07C0
ENDCHAR
STARTCHAR char9042
ENCODING 8484
SWIDTH 16000 0
DWIDTH 16 0
BBX 8 6 9 6
BITMAP
70
0E
03
F0
1C
03
ENDCHAR
STARTCHAR char9043
ENCODING 8485
SWIDTH 16000 0
DWIDTH 16 0
BBX 16 9 1 3
BITMAP
00F8
030E
C303
31E3
0C0C
C3F0
3007
0E18
03E0
ENDCHAR
STARTCHAR char8780
ENCODING 8486
SWIDTH 16000 0
DWIDTH 16 0
BBX 14 15 2 0
BITMAP
FFFC
FFFC
FFFC
FFFC
FFFC
FFFC
FFFC
FFFC
FFFC
FFFC
FFFC
FFFC
FFFC
FFFC
FFFC
ENDCHAR
STARTCHAR char8781
ENCODING 8487
SWIDTH 16000 0
DWIDTH 16 0
BBX 14 15 2 0
BITMAP
FFFC
FFFC
FFFC
FFFC
FFFC
FFFC
FFFC
FFFC
FFFC
FFFC
FFFC
FFFC
FFFC
FFFC
FFFC
ENDCHAR
STARTCHAR char8782
ENCODING 8488
SWIDTH 16000 0
DWIDTH 16 0
BBX 14 15 2 0
BITMAP
FFFC
FFFC
FFFC
FFFC
FFFC
FFFC
FFFC
FFFC
FFFC
FFFC
FFFC
FFFC
FFFC
FFFC
FFFC
ENDCHAR
STARTCHAR char8780
ENCODING 8489
SWIDTH 16000 0
DWIDTH 16 0
BBX 14 15 2 0
BITMAP
FFFC
FFFC
FFFC
FFFC
FFFC
FFFC
FFFC
FFFC
FFFC
FFFC
FFFC
FFFC
FFFC
FFFC
FFFC
ENDCHAR
STARTCHAR char8781
ENCODING 8490
SWIDTH 16000 0
DWIDTH 16 0
BBX 14 15 2 0
BITMAP
FFFC
FFFC
FFFC
FFFC
FFFC
FFFC
FFFC
FFFC
FFFC
FFFC
FFFC
FFFC
FFFC
FFFC
FFFC
ENDCHAR
STARTCHAR char8782
ENCODING 8491
SWIDTH 16000 0
DWIDTH 16 0
BBX 14 15 2 0
BITMAP
FFFC
FFFC
FFFC
FFFC
FFFC
FFFC
FFFC
FFFC
FFFC
FFFC
FFFC
FFFC
FFFC
FFFC
FFFC
ENDCHAR
STARTCHAR char8780
ENCODING 8492
SWIDTH 16000 0
DWIDTH 16 0
BBX 14 15 2 0
BITMAP
FFFC
FFFC
FFFC
FFFC
FFFC
FFFC
FFFC
FFFC
FFFC
FFFC
FFFC
FFFC
FFFC
FFFC
FFFC
ENDCHAR
STARTCHAR char8781
ENCODING 8493
SWIDTH 16000 0
DWIDTH 16 0
BBX 14 15 2 0
BITMAP
FFFC
FFFC
FFFC
FFFC
FFFC
FFFC
FFFC
FFFC
FFFC
FFFC
FFFC
FFFC
FFFC
FFFC
FFFC
ENDCHAR
STARTCHAR char8782
ENCODING 8494
SWIDTH 16000 0
DWIDTH 16 0
BBX 14 15 2 0
BITMAP
FFFC
FFFC
FFFC
FFFC
FFFC
FFFC
FFFC
FFFC
FFFC
FFFC
FFFC
FFFC
FFFC
FFFC
FFFC
ENDCHAR
STARTCHAR char8782
ENCODING 8495
SWIDTH 16000 0
DWIDTH 16 0
BBX 14 15 2 0
BITMAP
FFFC
FFFC
FFFC
FFFC
FFFC
FFFC
FFFC
FFFC
FFFC
FFFC
FFFC
FFFC
FFFC
FFFC
FFFC
ENDCHAR
STARTCHAR char8496
ENCODING 8496
SWIDTH 16000 0
DWIDTH 16 0
BBX 15 22 0 -2
BITMAP
0300
0480
030E
00FC
00E0
F880
3D00
0200
67CE
67CE
2386
25C6
26C6
2F66
2122
2122
2112
3E0A
1E0A
0006
0006
0002
ENDCHAR
STARTCHAR char8497
ENCODING 8497
SWIDTH 13000 0
DWIDTH 13 0
BBX 12 12 1 0
BITMAP
CF80
CF80
4700
4B80
4D80
5E80
4240
4240
4220
7C20
3C10
0010
ENDCHAR
STARTCHAR char8498
ENCODING 8498
SWIDTH 16000 0
DWIDTH 16 0
BBX 14 29 1 -9
BITMAP
0800
0800
0800
0400
0400
1200
1200
0C00
2100
1E18
0024
1E24
3F18
4700
4300
8118
8124
4224
2618
0F00
0180
2080
1040
0830
0478
0208
0388
01F8
0060
ENDCHAR
STARTCHAR char8498
ENCODING 8499
SWIDTH 16000 0
DWIDTH 16 0
BBX 14 29 1 -9
BITMAP
0800
0800
0800
0400
0400
1200
1200
0C00
2100
1E18
0024
1E24
3F18
4700
433C
8100
8118
4224
2624
0F18
0180
2080
1040
0830
0478
0208
0388
01F8
0060
ENDCHAR
STARTCHAR char8500
ENCODING 8500
SWIDTH 21000 0
DWIDTH 21 0
BBX 21 13 1 1
BITMAP
0007C0
000FE0
E01C70
181818
061818
010818
00C018
003078
001FF0
0047C8
003030
001FE0
000FC0
ENDCHAR
STARTCHAR char8501
ENCODING 8501
SWIDTH 13000 0
DWIDTH 13 0
BBX 13 13 0 1
BITMAP
0780
1FE0
1870
3030
3038
1038
8030
60F0
3FE0
8F90
6060
3FE0
1F80
ENDCHAR
STARTCHAR char8502
ENCODING 8502
SWIDTH 21000 0
DWIDTH 21 0
BBX 21 22 1 -8
BITMAP
0007C0
000FE0
E01C70
1C1818
021818
010818
00C018
003078
001FF0
0047C8
003030
001FE0
0007C0
000820
0007C0
000100
000100
000100
000100
000100
000100
000100
ENDCHAR
STARTCHAR char8503
ENCODING 8503
SWIDTH 30000 0
DWIDTH 30 0
BBX 29 12 1 2
BITMAP
000F0408
001FC4C8
E038E5E8
183075E8
062034C8
01303408
00807408
0070E4C8
003FE5E8
000F85E8
000004C8
00000408
ENDCHAR
STARTCHAR char8504
ENCODING 8504
SWIDTH 8000 0
DWIDTH 8 0
BBX 7 28 1 -12
BITMAP
02
42
A6
98
00
44
28
54
28
10
00
10
10
10
10
10
10
10
10
10
10
10
10
10
10
10
10
10
ENDCHAR
STARTCHAR char8505
ENCODING 8505
SWIDTH 12000 0
DWIDTH 12 0
BBX 10 21 1 -8
BITMAP
0F00
1F80
33C0
60C0
40C0
8080
0080
1900
3E00
0600
0300
3900
7C80
0680
0240
0140
0100
0080
0080
0040
0040
ENDCHAR
STARTCHAR char8506
ENCODING 8506
SWIDTH 15000 0
DWIDTH 15 0
BBX 14 23 1 -10
BITMAP
03C0
C7E0
CCF0
9830
9030
A020
8060
86C0
8F00
8180
80C0
8E40
9F20
81A0
8090
8050
8040
8020
8020
8000
8000
600C
1FFC
ENDCHAR
STARTCHAR char58
ENCODING 8507
SWIDTH 7000 0
DWIDTH 7 0
BBX 5 4 1 11
BITMAP
F8
F8
70
20
ENDCHAR
STARTCHAR char58
ENCODING 8508
SWIDTH 7000 0
DWIDTH 7 0
BBX 5 4 1 11
BITMAP
F8
F8
70
20
ENDCHAR
STARTCHAR char59
ENCODING 8509
SWIDTH 4000 0
DWIDTH 4 0
BBX 2 23 1 -8
BITMAP
C0
C0
40
40
40
40
40
40
40
40
40
40
40
40
40
40
40
40
40
40
40
40
40
ENDCHAR
STARTCHAR char60
ENCODING 8510
SWIDTH 8000 0
DWIDTH 8 0
BBX 7 24 1 -9
BITMAP
C6
C6
42
42
42
42
42
42
42
42
42
42
42
42
42
42
42
42
42
42
42
42
42
42
ENDCHAR
STARTCHAR char61
ENCODING 8511
SWIDTH 8000 0
DWIDTH 8 0
BBX 5 23 1 -8
BITMAP
F8
70
20
00
00
20
20
20
20
20
20
20
20
20
20
20
20
20
20
20
20
20
20
ENDCHAR
STARTCHAR char61
ENCODING 8512
SWIDTH 7000 0
DWIDTH 7 0
BBX 5 23 1 -8
BITMAP
78
F0
00
70
00
20
20
20
20
20
20
20
20
20
20
20
20
20
20
20
20
20
20
ENDCHAR
STARTCHAR char62
ENCODING 8513
SWIDTH 9000 0
DWIDTH 9 0
BBX 7 25 1 -9
BITMAP
C6
44
00
38
10
00
10
10
10
10
10
10
10
10
10
10
10
10
10
10
10
10
10
10
10
ENDCHAR
STARTCHAR char8507
ENCODING 8514
SWIDTH 20000 0
DWIDTH 20 0
BBX 18 27 1 -11
BITMAP
008000
008000
008000
004000
004000
012000
012000
04C800
021000
01E000
000000
F6DBC0
300300
03E000
01C000
01C000
008000
008000
008000
008000
008000
008000
008000
008000
008000
008000
008000
ENDCHAR
STARTCHAR char8515
ENCODING 8515
SWIDTH 18000 0
DWIDTH 18 0
BBX 16 15 1 -1
BITMAP
0180
0180
0000
07E0
0810
1008
D00B
D00B
1008
1008
0810
07E0
0000
0180
0180
ENDCHAR
STARTCHAR char64
ENCODING 8516
SWIDTH 6000 0
DWIDTH 6 0
BBX 4 11 1 4
BITMAP
60
90
90
60
00
F0
00
60
90
90
60
ENDCHAR
STARTCHAR char8517
ENCODING 8517
SWIDTH 15000 0
DWIDTH 15 0
BBX 13 16 1 -1
BITMAP
FFF8
8008
F8F8
8008
9DC8
8008
8008
FFF8
8008
8088
E048
3C28
0718
01E8
0038
0008
ENDCHAR
STARTCHAR char8518
ENCODING 8518
SWIDTH 15000 0
DWIDTH 15 0
BBX 13 19 1 -4
BITMAP
FE08
8208
BE08
A008
BFF8
8008
FEF8
0288
0288
FE88
8088
FF88
0008
FFF8
0208
FFF8
8008
FFF8
0008
ENDCHAR
STARTCHAR char8519
ENCODING 8519
SWIDTH 17000 0
DWIDTH 17 0
BBX 15 12 1 1
BITMAP
0248
06D8
0492
15FC
1788
54C8
5C50
5C70
7660
63C0
FF00
8000
ENDCHAR
STARTCHAR char8520
ENCODING 8520
SWIDTH 12000 0
DWIDTH 12 0
BBX 13 12 -4 -6
BITMAP
0008
0388
04D8
0450
03F0
38C0
4C80
4580
3F00
0C00
3000
C000
ENDCHAR
STARTCHAR char8521
ENCODING 8521
SWIDTH 12000 0
DWIDTH 12 0
BBX 5 7 3 -7
BITMAP
F8
70
20
20
20
20
20
ENDCHAR
STARTCHAR char8522
ENCODING 8522
SWIDTH 8000 0
DWIDTH 8 0
BBX 4 5 2 7
BITMAP
60
90
90
90
60
ENDCHAR
STARTCHAR char8523
ENCODING 8523
SWIDTH 16000 0
DWIDTH 16 0
BBX 12 5 2 7
BITMAP
6060
9090
9090
9090
6060
ENDCHAR
STARTCHAR char8524
ENCODING 8524
SWIDTH 14000 0
DWIDTH 14 0
BBX 12 11 1 3
BITMAP
0600
0900
0900
0900
0600
0000
6060
9090
9090
9090
6060
ENDCHAR
STARTCHAR char8526
ENCODING 8525
SWIDTH 9000 0
DWIDTH 9 0
BBX 7 7 2 5
BITMAP
C6
6C
38
30
78
CC
84
ENDCHAR
STARTCHAR char8526
ENCODING 8526
SWIDTH 17000 0
DWIDTH 17 0
BBX 15 7 1 5
BITMAP
C6C6
6C6C
3838
3030
7878
CCCC
8484
ENDCHAR
STARTCHAR char8527
ENCODING 8527
SWIDTH 16000 0
DWIDTH 16 0
BBX 14 7 1 5
BITMAP
018C
70D8
8870
8860
88F0
7198
0108
ENDCHAR
STARTCHAR char48
ENCODING 8528
SWIDTH 13000 0
DWIDTH 13 0
BBX 11 9 1 5
BITMAP
0F80
10C0
2060
4060
C060
C040
C080
6100
3E00
ENDCHAR
STARTCHAR char49
ENCODING 8529
SWIDTH 11000 0
DWIDTH 11 0
BBX 9 13 1 2
BITMAP
1C00
7E00
E300
C180
C180
4180
2180
0180
0100
0200
0400
0800
1000
ENDCHAR
STARTCHAR char50
ENCODING 8530
SWIDTH 11000 0
DWIDTH 11 0
BBX 9 13 1 2
BITMAP
1F00
3780
6180
4180
8180
0100
1A00
3C00
0600
0300
0100
0080
0080
ENDCHAR
STARTCHAR char51
ENCODING 8531
SWIDTH 10000 0
DWIDTH 10 0
BBX 8 14 1 2
BITMAP
1C
3E
47
83
03
3E
03
03
03
7E
FC
06
02
01
ENDCHAR
STARTCHAR char52
ENCODING 8532
SWIDTH 13000 0
DWIDTH 13 0
BBX 11 8 1 7
BITMAP
1800
3C00
6420
C3C0
6000
3000
1800
0FE0
ENDCHAR
STARTCHAR char53
ENCODING 8533
SWIDTH 11000 0
DWIDTH 11 0
BBX 9 10 1 5
BITMAP
0100
8300
8300
8300
8300
8300
8300
C300
7F00
3C80
ENDCHAR
STARTCHAR char54
ENCODING 8534
SWIDTH 14000 0
DWIDTH 14 0
BBX 12 9 1 6
BITMAP
8000
8000
4000
4300
6780
2240
3120
1F10
0E00
ENDCHAR
STARTCHAR char55
ENCODING 8535
SWIDTH 13000 0
DWIDTH 13 0
BBX 11 9 1 5
BITMAP
0020
0020
0020
1820
3C60
4C60
8460
89C0
0F80
ENDCHAR
STARTCHAR char56
ENCODING 8536
SWIDTH 12000 0
DWIDTH 12 0
BBX 10 10 1 5
BITMAP
1000
1000
1000
3000
6000
7800
FE00
0300
0180
0040
ENDCHAR
STARTCHAR char57
ENCODING 8537
SWIDTH 11000 0
DWIDTH 11 0
BBX 9 12 1 3
BITMAP
3E00
7F00
F300
C300
8600
8880
8700
4000
2000
1000
0C00
0300
ENDCHAR
STARTCHAR char8538
ENCODING 8538
SWIDTH 18000 0
DWIDTH 18 0
BBX 16 14 1 1
BITMAP
07C0
0FC0
1860
1820
1BF0
3C3E
CC31
0022
0060
0040
0080
0080
0100
0200
ENDCHAR
STARTCHAR char8539
ENCODING 8539
SWIDTH 17000 0
DWIDTH 17 0
BBX 15 14 1 2
BITMAP
0700
0F80
1BC0
30C0
20C0
1FE0
609C
8D02
1E04
0300
0180
0080
0040
0040
ENDCHAR
STARTCHAR char8540
ENCODING 8540
SWIDTH 17000 0
DWIDTH 17 0
BBX 15 13 1 2
BITMAP
0F80
31C0
20C0
00C0
0FE0
70DC
80C2
00C4
1F00
3E00
0180
0080
0040
ENDCHAR
STARTCHAR char8541
ENCODING 8541
SWIDTH 18000 0
DWIDTH 18 0
BBX 16 9 1 6
BITMAP
0100
0704
0CC8
1BF8
7C0E
8601
0302
01E0
0038
ENDCHAR
STARTCHAR char8542
ENCODING 8542
SWIDTH 17000 0
DWIDTH 17 0
BBX 15 10 1 5
BITMAP
1020
1060
1040
3040
37F8
7864
9862
1C64
0FA0
0710
ENDCHAR
STARTCHAR char8543
ENCODING 8543
SWIDTH 18000 0
DWIDTH 18 0
BBX 16 9 1 6
BITMAP
2000
2000
2000
3180
17E0
39BE
CC99
07CA
01C0
ENDCHAR
STARTCHAR char8544
ENCODING 8544
SWIDTH 19000 0
DWIDTH 19 0
BBX 17 11 1 5
BITMAP
000800
000800
000800
000800
000800
0E0800
1AF800
3F1F00
E23080
427100
01C000
ENDCHAR
STARTCHAR char8545
ENCODING 8545
SWIDTH 17000 0
DWIDTH 17 0
BBX 15 11 1 5
BITMAP
0200
0200
0200
0400
0400
05F0
3F0C
CF82
18E4
0030
0008
ENDCHAR
STARTCHAR char8546
ENCODING 8546
SWIDTH 18000 0
DWIDTH 18 0
BBX 16 12 1 4
BITMAP
00C0
03F0
0710
0C10
0FFE
3CC9
C432
0600
0200
0180
00C0
0030
ENDCHAR
STARTCHAR char8547
ENCODING 8547
SWIDTH 18000 0
DWIDTH 18 0
BBX 16 10 1 5
BITMAP
0300
0FC0
1860
1030
17D0
383E
D811
1C32
0F60
03C0
ENDCHAR
STARTCHAR char8548
ENCODING 8548
SWIDTH 11000 0
DWIDTH 11 0
BBX 7 12 2 3
BITMAP
FE
7C
38
10
00
F8
FC
02
00
F8
FC
02
ENDCHAR
STARTCHAR char115
ENCODING 8549
SWIDTH 12000 0
DWIDTH 12 0
BBX 6 6 3 -12
BITMAP
30
48
48
30
84
78
ENDCHAR
STARTCHAR char8550
ENCODING 8550
SWIDTH 14000 0
DWIDTH 14 0
BBX 12 12 1 3
BITMAP
0600
0600
0000
0000
0000
C030
C030
0000
0000
0000
0600
0600
ENDCHAR
STARTCHAR char114
ENCODING 8551
SWIDTH 12000 0
DWIDTH 12 0
BBX 4 4 4 -12
BITMAP
60
90
90
60
ENDCHAR
STARTCHAR char8552
ENCODING 8552
SWIDTH 14000 0
DWIDTH 14 0
BBX 12 8 1 8
BITMAP
0010
0030
3C30
6730
C330
8660
0CC0
1F00
ENDCHAR
STARTCHAR char8553
ENCODING 8553
SWIDTH 12000 0
DWIDTH 12 0
BBX 4 3 11 13
BITMAP
70
F0
80
ENDCHAR
STARTCHAR char8554
ENCODING 8554
SWIDTH 21000 0
DWIDTH 21 0
BBX 19 9 1 6
BITMAP
0000C0
01C120
0220C0
F22600
092900
044600
0380C0
000120
0000C0
ENDCHAR
STARTCHAR char8554
ENCODING 8555
SWIDTH 21000 0
DWIDTH 21 0
BBX 19 9 1 6
BITMAP
600000
907000
608800
0C89E0
129200
0C4400
603800
900000
600000
ENDCHAR
STARTCHAR char8556
ENCODING 8556
SWIDTH 20000 0
DWIDTH 20 0
BBX 16 31 1 -11
BITMAP
0003
000E
0018
03F0
1C00
3000
6000
6000
6000
6000
6000
6000
6000
6000
6000
6000
6000
6000
6000
6000
6000
6000
6000
6000
6000
6000
6000
6000
6000
6000
C000
ENDCHAR
STARTCHAR char8556
ENCODING 8557
SWIDTH 20000 0
DWIDTH 20 0
BBX 16 31 1 -11
BITMAP
C000
7000
1800
0FC0
0038
000C
0006
0006
0006
0006
0006
0006
0006
0006
0006
0006
0006
0006
0006
0006
0006
0006
0006
0006
0006
0006
0006
0006
0006
0006
0003
ENDCHAR
STARTCHAR char8558
ENCODING 8558
SWIDTH 8000 0
DWIDTH 8 0
BBX 7 10 1 -6
BITMAP
0E
38
60
C0
80
80
80
80
80
80
ENDCHAR
STARTCHAR char8559
ENCODING 8559
SWIDTH 8000 0
DWIDTH 8 0
BBX 7 10 0 -6
BITMAP
E0
38
0C
06
02
02
02
02
02
02
ENDCHAR
STARTCHAR char8782
ENCODING 8560
SWIDTH 16000 0
DWIDTH 16 0
BBX 14 15 2 0
BITMAP
FFFC
FFFC
FFFC
FFFC
FFFC
FFFC
FFFC
FFFC
FFFC
FFFC
FFFC
FFFC
FFFC
FFFC
FFFC
ENDCHAR
STARTCHAR char8782
ENCODING 8561
SWIDTH 16000 0
DWIDTH 16 0
BBX 14 15 2 0
BITMAP
FFFC
FFFC
FFFC
FFFC
FFFC
FFFC
FFFC
FFFC
FFFC
FFFC
FFFC
FFFC
FFFC
FFFC
FFFC
ENDCHAR
STARTCHAR char8782
ENCODING 8562
SWIDTH 16000 0
DWIDTH 16 0
BBX 14 15 2 0
BITMAP
FFFC
FFFC
FFFC
FFFC
FFFC
FFFC
FFFC
FFFC
FFFC
FFFC
FFFC
FFFC
FFFC
FFFC
FFFC
ENDCHAR
STARTCHAR char8782
ENCODING 8563
SWIDTH 16000 0
DWIDTH 16 0
BBX 14 15 2 0
BITMAP
FFFC
FFFC
FFFC
FFFC
FFFC
FFFC
FFFC
FFFC
FFFC
FFFC
FFFC
FFFC
FFFC
FFFC
FFFC
ENDCHAR
STARTCHAR char8782
ENCODING 8564
SWIDTH 16000 0
DWIDTH 16 0
BBX 14 15 2 0
BITMAP
FFFC
FFFC
FFFC
FFFC
FFFC
FFFC
FFFC
FFFC
FFFC
FFFC
FFFC
FFFC
FFFC
FFFC
FFFC
ENDCHAR
STARTCHAR char8782
ENCODING 8565
SWIDTH 16000 0
DWIDTH 16 0
BBX 14 15 2 0
BITMAP
FFFC
FFFC
FFFC
FFFC
FFFC
FFFC
FFFC
FFFC
FFFC
FFFC
FFFC
FFFC
FFFC
FFFC
FFFC
ENDCHAR
STARTCHAR char8782
ENCODING 8566
SWIDTH 16000 0
DWIDTH 16 0
BBX 14 15 2 0
BITMAP
FFFC
FFFC
FFFC
FFFC
FFFC
FFFC
FFFC
FFFC
FFFC
FFFC
FFFC
FFFC
FFFC
FFFC
FFFC
ENDCHAR
STARTCHAR char8782
ENCODING 8567
SWIDTH 16000 0
DWIDTH 16 0
BBX 14 15 2 0
BITMAP
FFFC
FFFC
FFFC
FFFC
FFFC
FFFC
FFFC
FFFC
FFFC
FFFC
FFFC
FFFC
FFFC
FFFC
FFFC
ENDCHAR
STARTCHAR char8782
ENCODING 8568
SWIDTH 16000 0
DWIDTH 16 0
BBX 14 15 2 0
BITMAP
FFFC
FFFC
FFFC
FFFC
FFFC
FFFC
FFFC
FFFC
FFFC
FFFC
FFFC
FFFC
FFFC
FFFC
FFFC
ENDCHAR
STARTCHAR char8782
ENCODING 8569
SWIDTH 16000 0
DWIDTH 16 0
BBX 14 15 2 0
BITMAP
FFFC
FFFC
FFFC
FFFC
FFFC
FFFC
FFFC
FFFC
FFFC
FFFC
FFFC
FFFC
FFFC
FFFC
FFFC
ENDCHAR
STARTCHAR char8782
ENCODING 8570
SWIDTH 16000 0
DWIDTH 16 0
BBX 14 15 2 0
BITMAP
FFFC
FFFC
FFFC
FFFC
FFFC
FFFC
FFFC
FFFC
FFFC
FFFC
FFFC
FFFC
FFFC
FFFC
FFFC
ENDCHAR
STARTCHAR char8782
ENCODING 8571
SWIDTH 16000 0
DWIDTH 16 0
BBX 14 15 2 0
BITMAP
FFFC
FFFC
FFFC
FFFC
FFFC
FFFC
FFFC
FFFC
FFFC
FFFC
FFFC
FFFC
FFFC
FFFC
FFFC
ENDCHAR
STARTCHAR char8782
ENCODING 8572
SWIDTH 16000 0
DWIDTH 16 0
BBX 14 15 2 0
BITMAP
FFFC
FFFC
FFFC
FFFC
FFFC
FFFC
FFFC
FFFC
FFFC
FFFC
FFFC
FFFC
FFFC
FFFC
FFFC
ENDCHAR
STARTCHAR char8782
ENCODING 8573
SWIDTH 16000 0
DWIDTH 16 0
BBX 14 15 2 0
BITMAP
FFFC
FFFC
FFFC
FFFC
FFFC
FFFC
FFFC
FFFC
FFFC
FFFC
FFFC
FFFC
FFFC
FFFC
FFFC
ENDCHAR
STARTCHAR char8782
ENCODING 8574
SWIDTH 16000 0
DWIDTH 16 0
BBX 14 15 2 0
BITMAP
FFFC
FFFC
FFFC
FFFC
FFFC
FFFC
FFFC
FFFC
FFFC
FFFC
FFFC
FFFC
FFFC
FFFC
FFFC
ENDCHAR
STARTCHAR char65
ENCODING 8737
SWIDTH 14000 0
DWIDTH 14 0
BBX 12 19 1 -4
BITMAP
7FF0
7FF0
0630
0A30
0B30
7110
F110
8090
0090
0010
0010
0010
0010
0010
0010
0010
0010
0010
0010
ENDCHAR
STARTCHAR char66
ENCODING 8738
SWIDTH 14000 0
DWIDTH 14 0
BBX 12 20 1 -5
BITMAP
3FF0
FFF0
C670
C430
C410
C410
8810
8810
8F90
8FD0
8070
8010
8000
8000
8000
8000
8000
8000
8000
8000
ENDCHAR
STARTCHAR char67
ENCODING 8739
SWIDTH 13000 0
DWIDTH 13 0
BBX 11 20 1 -5
BITMAP
FFE0
FFE0
6320
4320
8120
8120
8120
F920
FD20
0320
0120
0020
0020
0020
0020
0020
0020
0020
0020
0020
ENDCHAR
STARTCHAR char68
ENCODING 8740
SWIDTH 14000 0
DWIDTH 14 0
BBX 12 24 1 -9
BITMAP
FFE0
FFE0
4320
8320
8120
F920
FD20
0320
0120
0020
3FC0
3F80
1000
2000
41E0
7BF0
1C30
0C30
0630
0260
0040
0080
0100
0200
ENDCHAR
STARTCHAR char69
ENCODING 8741
SWIDTH 14000 0
DWIDTH 14 0
BBX 12 12 1 3
BITMAP
7FE0
7FE0
3000
6000
4000
4000
7F00
7F80
FFC0
0060
0020
0010
ENDCHAR
STARTCHAR char70
ENCODING 8742
SWIDTH 14000 0
DWIDTH 14 0
BBX 12 12 1 3
BITMAP
3FC0
3FC0
0400
0400
0780
09E0
F070
2030
3010
1010
1820
0FC0
ENDCHAR
STARTCHAR char71
ENCODING 8743
SWIDTH 15000 0
DWIDTH 15 0
BBX 13 12 1 3
BITMAP
7FE0
7FC0
0600
0200
3FE0
7FF0
C218
8208
8208
8208
C218
7DF0
ENDCHAR
STARTCHAR char72
ENCODING 8744
SWIDTH 15000 0
DWIDTH 15 0
BBX 13 14 1 1
BITMAP
7FE0
7FE0
7000
6000
4000
5FC0
7FC0
C000
8000
BF80
FFC0
F0E0
0030
0008
ENDCHAR
STARTCHAR char8745
ENCODING 8745
SWIDTH 16000 0
DWIDTH 16 0
BBX 14 15 2 0
BITMAP
FFFC
FFFC
FFFC
FFFC
FFFC
FFFC
FFFC
FFFC
FFFC
FFFC
FFFC
FFFC
FFFC
FFFC
FFFC
ENDCHAR
STARTCHAR char74
ENCODING 8746
SWIDTH 15000 0
DWIDTH 15 0
BBX 13 20 1 -5
BITMAP
3F80
7F80
80C0
80C0
8080
E3E0
65F0
2878
0818
0C18
0F18
0710
0030
0020
0020
0040
0080
0080
0100
0200
ENDCHAR
STARTCHAR char75
ENCODING 8747
SWIDTH 12000 0
DWIDTH 12 0
BBX 10 20 1 -5
BITMAP
FFC0
7FC0
00C0
00C0
00C0
3C80
7E80
E100
C100
C100
C000
4000
4000
2000
2000
1000
1000
0800
0400
0200
ENDCHAR
STARTCHAR char76
ENCODING 8748
SWIDTH 12000 0
DWIDTH 12 0
BBX 10 13 1 2
BITMAP
FC00
FF00
8080
8080
C080
BF80
8700
8100
8080
8F80
BFC0
F000
8000
ENDCHAR
STARTCHAR char77
ENCODING 8749
SWIDTH 14000 0
DWIDTH 14 0
BBX 12 22 1 -7
BITMAP
1FF0
1FF0
0060
0020
0010
0010
03D0
0FF0
1FF0
1800
3000
3000
2000
2000
2000
4000
4000
4000
4000
8000
8000
8000
ENDCHAR
STARTCHAR char78
ENCODING 8750
SWIDTH 15000 0
DWIDTH 15 0
BBX 13 23 1 -8
BITMAP
1FF0
1FF0
0060
0020
0010
07F0
1FF0
1E00
3000
2000
7FE0
7FC0
8800
11F0
23F8
1E38
0618
0318
0130
0020
0040
0080
0100
ENDCHAR
STARTCHAR char79
ENCODING 8751
SWIDTH 14000 0
DWIDTH 14 0
BBX 12 21 1 -6
BITMAP
3FE0
1FE0
0300
0200
0200
07C0
0FE0
1E30
1C10
3410
3220
21C0
2000
2000
4000
4000
4000
4000
8000
8000
8000
ENDCHAR
STARTCHAR char80
ENCODING 8752
SWIDTH 13000 0
DWIDTH 13 0
BBX 11 21 1 -6
BITMAP
FFC0
FFC0
C000
C000
C000
4F00
5FC0
61E0
20E0
2060
0060
0060
0060
00C0
00C0
0180
0100
0200
0400
0800
1000
ENDCHAR
STARTCHAR char81
ENCODING 8753
SWIDTH 12000 0
DWIDTH 12 0
BBX 10 14 1 1
BITMAP
0FC0
1FC0
2040
4040
40C0
7F40
3840
2040
4040
8040
FC40
FF40
03C0
0040
ENDCHAR
STARTCHAR char82
ENCODING 8754
SWIDTH 14000 0
DWIDTH 14 0
BBX 12 21 1 -6
BITMAP
7FC0
FFC0
3000
6000
4000
FE00
FF00
FF80
01C0
00C0
0040
0060
0020
0020
0020
0020
0010
0010
0010
0010
0010
ENDCHAR
STARTCHAR char83
ENCODING 8755
SWIDTH 14000 0
DWIDTH 14 0
BBX 12 22 1 -7
BITMAP
7FC0
FFC0
6000
4000
9C00
FF00
3F80
01C0
0040
0020
3FE0
7F90
3000
43E0
27F0
3C70
0C30
0630
0260
0040
0080
0100
ENDCHAR
STARTCHAR char84
ENCODING 8756
SWIDTH 15000 0
DWIDTH 15 0
BBX 13 21 1 -6
BITMAP
3FC0
7FC0
0400
0400
3E00
7F00
C380
81C0
81C0
4240
3C60
0020
0020
0020
0020
0010
0010
0010
0008
0008
0008
ENDCHAR
STARTCHAR char85
ENCODING 8757
SWIDTH 14000 0
DWIDTH 14 0
BBX 12 14 1 1
BITMAP
7F30
7E30
2010
6010
4010
4010
8010
BE10
FF10
FF90
0050
0030
0010
0010
ENDCHAR
STARTCHAR char86
ENCODING 8758
SWIDTH 14000 0
DWIDTH 14 0
BBX 12 14 1 1
BITMAP
7F30
7E30
2030
60D0
4190
4310
8610
BE10
FF10
FF90
0050
0030
0010
0010
ENDCHAR
STARTCHAR char87
ENCODING 8759
SWIDTH 14000 0
DWIDTH 14 0
BBX 12 14 1 1
BITMAP
7FF0
7FF0
2010
6010
4010
4010
8010
BC10
FF10
FF90
0050
0030
0010
0010
ENDCHAR
STARTCHAR char88
ENCODING 8760
SWIDTH 14000 0
DWIDTH 14 0
BBX 12 21 1 -6
BITMAP
FFE0
FFE0
4060
8020
8020
B820
FE20
FF20
00A0
3FE0
7F80
3000
43E0
37F0
3C70
0C30
0630
0260
0040
0080
0100
ENDCHAR
STARTCHAR char89
ENCODING 8761
SWIDTH 14000 0
DWIDTH 14 0
BBX 12 14 1 1
BITMAP
7F30
7F30
0C10
0410
0410
3C10
7F10
C790
8390
82D0
4450
3830
0010
0010
ENDCHAR
STARTCHAR char90
ENCODING 8762
SWIDTH 14000 0
DWIDTH 14 0
BBX 13 15 1 3
BITMAP
0018
0038
0040
3FC0
3FC0
0400
0400
0780
09E0
F070
2030
3010
1010
1820
0FC0
ENDCHAR
STARTCHAR char91
ENCODING 8763
SWIDTH 15000 0
DWIDTH 15 0
BBX 13 15 1 3
BITMAP
0038
0030
0020
7FE0
7FC0
0600
0200
3FE0
7FF0
C218
8208
8208
8208
C218
7DF0
ENDCHAR
STARTCHAR char92
ENCODING 8764
SWIDTH 16000 0
DWIDTH 16 0
BBX 14 17 1 1
BITMAP
000C
001C
0010
7FE0
7FE0
7000
6000
4000
5FC0
7FC0
8000
8000
BF80
FFC0
0060
0010
0008
ENDCHAR
STARTCHAR char93
ENCODING 8765
SWIDTH 16000 0
DWIDTH 16 0
BBX 14 24 1 -6
BITMAP
001C
001C
0010
7FE0
7FE0
4000
5FC0
7FC0
8000
BF80
FFC0
0020
3FC0
7F80
3000
43E0
27F0
1C70
0C30
0630
0220
0040
0080
0100
ENDCHAR
STARTCHAR char94
ENCODING 8766
SWIDTH 14000 0
DWIDTH 14 0
BBX 12 15 1 0
BITMAP
78F0
98E0
8880
88C0
8840
8820
1FF0
3FF0
1810
1010
3E10
3F10
01D0
0070
0010
ENDCHAR
STARTCHAR char95
ENCODING 8767
SWIDTH 14000 0
DWIDTH 14 0
BBX 12 20 1 -5
BITMAP
07F0
0FF0
1030
2010
47A0
CFE0
C8C0
C860
C860
E7B0
6030
3010
1010
0810
0010
0010
0010
0010
0010
0010
ENDCHAR
STARTCHAR char96
ENCODING 8768
SWIDTH 13000 0
DWIDTH 13 0
BBX 11 14 1 1
BITMAP
FFE0
FFE0
0060
0060
7E60
7F20
01A0
0060
0020
3C20
7F20
E3A0
00E0
0020
ENDCHAR
STARTCHAR char97
ENCODING 8769
SWIDTH 14000 0
DWIDTH 14 0
BBX 13 17 1 -2
BITMAP
1FC0
1FC0
20C0
4060
8060
8060
8060
8040
C080
6380
67C0
27E0
0020
0010
0010
0008
0008
ENDCHAR
STARTCHAR char98
ENCODING 8770
SWIDTH 13000 0
DWIDTH 13 0
BBX 11 13 1 2
BITMAP
CCE0
CC60
8420
8420
8420
8420
8620
CF20
79A0
30E0
0060
0020
0020
ENDCHAR
STARTCHAR char99
ENCODING 8771
SWIDTH 15000 0
DWIDTH 15 0
BBX 13 14 1 1
BITMAP
7FC0
7FC0
0E00
0200
0200
0200
1C00
7F00
E380
00C0
0060
0030
0010
0008
ENDCHAR
STARTCHAR char100
ENCODING 8772
SWIDTH 14000 0
DWIDTH 14 0
BBX 12 13 1 2
BITMAP
1E30
3F30
4110
8110
8110
8110
C110
6210
6710
0F90
0050
0030
0010
ENDCHAR
STARTCHAR char101
ENCODING 8773
SWIDTH 14000 0
DWIDTH 14 0
BBX 12 21 1 -6
BITMAP
03F0
07F0
0810
0810
0810
0810
0C30
0BD0
F810
F810
0810
0410
0010
0010
0010
0010
0010
0010
0010
0010
0010
ENDCHAR
STARTCHAR char101
ENCODING 8774
SWIDTH 14000 0
DWIDTH 14 0
BBX 12 21 1 -6
BITMAP
FC00
FE00
8100
8100
8100
8100
C300
BD00
81F0
81F0
8100
8200
8000
8000
8000
8000
8000
8000
8000
8000
8000
ENDCHAR
STARTCHAR char103
ENCODING 8775
SWIDTH 15000 0
DWIDTH 15 0
BBX 13 13 1 2
BITMAP
3F98
7F98
3708
2188
2088
40C8
7848
FC28
0E28
0318
0118
0088
0008
ENDCHAR
STARTCHAR char104
ENCODING 8776
SWIDTH 14000 0
DWIDTH 14 0
BBX 12 17 1 -2
BITMAP
7F80
FF80
2000
4000
83C0
87E0
F870
1C30
0C30
0430
0260
0040
0080
0080
0100
0200
0400
ENDCHAR
STARTCHAR char105
ENCODING 8777
SWIDTH 15000 0
DWIDTH 15 0
BBX 13 14 1 1
BITMAP
CF98
CF98
4708
4B08
4D88
5E88
4648
4248
4228
7E28
3C18
0018
0008
0008
ENDCHAR
STARTCHAR char106
ENCODING 8778
SWIDTH 15000 0
DWIDTH 15 0
BBX 13 21 1 -6
BITMAP
7FF0
7FF0
0A30
0B30
7110
F110
8090
0090
0010
7E10
7F90
4080
4080
4180
7E80
40B0
40F8
4180
4000
4000
4000
ENDCHAR
STARTCHAR char99
ENCODING 8779
SWIDTH 14000 0
DWIDTH 14 0
BBX 13 14 1 1
BITMAP
7FC0
7FC0
0E00
0200
0200
0200
1C00
7F00
E380
00C0
0060
0030
0010
0008
ENDCHAR
STARTCHAR char8780
ENCODING 8780
SWIDTH 16000 0
DWIDTH 16 0
BBX 14 15 2 0
BITMAP
FFFC
FFFC
FFFC
FFFC
FFFC
FFFC
FFFC
FFFC
FFFC
FFFC
FFFC
FFFC
FFFC
FFFC
FFFC
ENDCHAR
STARTCHAR char8781
ENCODING 8781
SWIDTH 16000 0
DWIDTH 16 0
BBX 14 15 2 0
BITMAP
FFFC
FFFC
FFFC
FFFC
FFFC
FFFC
FFFC
FFFC
FFFC
FFFC
FFFC
FFFC
FFFC
FFFC
FFFC
ENDCHAR
STARTCHAR char8782
ENCODING 8782
SWIDTH 16000 0
DWIDTH 16 0
BBX 14 15 2 0
BITMAP
FFFC
FFFC
FFFC
FFFC
FFFC
FFFC
FFFC
FFFC
FFFC
FFFC
FFFC
FFFC
FFFC
FFFC
FFFC
ENDCHAR
STARTCHAR char8783
ENCODING 8783
SWIDTH 16000 0
DWIDTH 16 0
BBX 14 15 2 0
BITMAP
FFFC
FFFC
FFFC
FFFC
FFFC
FFFC
FFFC
FFFC
FFFC
FFFC
FFFC
FFFC
FFFC
FFFC
FFFC
ENDCHAR
STARTCHAR char8784
ENCODING 8784
SWIDTH 16000 0
DWIDTH 16 0
BBX 14 15 2 0
BITMAP
FFFC
FFFC
FFFC
FFFC
FFFC
FFFC
FFFC
FFFC
FFFC
FFFC
FFFC
FFFC
FFFC
FFFC
FFFC
ENDCHAR
STARTCHAR char8784
ENCODING 8785
SWIDTH 13000 0
DWIDTH 13 0
BBX 11 10 1 0
BITMAP
DB60
0020
8000
8020
0020
8000
8020
0020
8000
DB60
ENDCHAR
STARTCHAR char33
ENCODING 8786
SWIDTH 12000 0
DWIDTH 12 0
BBX 7 7 5 -7
BITMAP
3C
7C
84
84
88
1C
02
ENDCHAR
STARTCHAR char107
ENCODING 8787
SWIDTH 13000 0
DWIDTH 13 0
BBX 11 8 1 3
BITMAP
3000
7800
CC00
8600
8100
7080
0040
0020
ENDCHAR
STARTCHAR char107
ENCODING 8788
SWIDTH 13000 0
DWIDTH 13 0
BBX 11 20 1 -9
BITMAP
3000
7800
CC00
8600
8100
7080
0040
0020
0000
0000
0000
0000
0000
0780
0F80
1080
1080
1100
0380
0040
ENDCHAR
STARTCHAR char108
ENCODING 8789
SWIDTH 14000 0
DWIDTH 14 0
BBX 13 6 1 -6
BITMAP
8060
60F0
1898
0608
0388
01F0
ENDCHAR
STARTCHAR char108
ENCODING 8790
SWIDTH 14000 0
DWIDTH 14 0
BBX 13 13 1 -6
BITMAP
0780
0F80
1080
1080
1100
0380
0040
8060
60F0
1898
0608
0388
01F0
ENDCHAR
STARTCHAR char111
ENCODING 8791
SWIDTH 14000 0
DWIDTH 14 0
BBX 12 16 1 -5
BITMAP
0180
03C0
0620
0C30
1830
30E0
4000
8000
0000
0000
0000
0000
0020
7E20
7FA0
0060
ENDCHAR
STARTCHAR char111
ENCODING 8792
SWIDTH 14000 0
DWIDTH 14 0
BBX 12 23 1 -12
BITMAP
0180
03C0
0620
0C30
1830
30E0
4000
8000
0000
0000
0000
0000
0020
7E20
7FA0
0060
0780
0F80
1080
1080
1100
0380
0040
ENDCHAR
STARTCHAR char111
ENCODING 8793
SWIDTH 15000 0
DWIDTH 15 0
BBX 13 19 1 -6
BITMAP
0180
03C0
0620
0C30
1830
30E0
4000
8000
0F18
1F18
2108
4088
4088
4088
2088
3108
13C8
07F8
0008
ENDCHAR
STARTCHAR char111
ENCODING 8794
SWIDTH 15000 0
DWIDTH 15 0
BBX 13 26 1 -12
BITMAP
0180
03C0
0620
0C30
1830
30E0
4000
8000
0F18
1F18
2108
4088
4088
4088
2088
3108
13C8
07F8
0008
01E0
03E0
0420
0420
0440
00E0
0010
ENDCHAR
STARTCHAR char109
ENCODING 8795
SWIDTH 13000 0
DWIDTH 13 0
BBX 11 7 0 3
BITMAP
E000
F800
1C00
0200
0180
0040
0020
ENDCHAR
STARTCHAR char112
ENCODING 8796
SWIDTH 14000 0
DWIDTH 14 0
BBX 12 7 0 4
BITMAP
F800
7E00
0300
FC80
7F40
01E0
0010
ENDCHAR
STARTCHAR char110
ENCODING 8797
SWIDTH 13000 0
DWIDTH 13 0
BBX 15 7 -2 3
BITMAP
0006
003C
0078
F0C0
7D00
0700
0100
ENDCHAR
STARTCHAR char113
ENCODING 8798
SWIDTH 13000 0
DWIDTH 13 0
BBX 15 8 -2 3
BITMAP
001C
0078
F8C0
3D3E
027C
7CC0
1F00
0100
ENDCHAR
STARTCHAR char114
ENCODING 8799
SWIDTH 14000 0
DWIDTH 14 0
BBX 4 4 4 3
BITMAP
60
90
90
60
ENDCHAR
STARTCHAR char117
ENCODING 8800
SWIDTH 6000 0
DWIDTH 6 0
BBX 4 10 1 5
BITMAP
60
90
90
60
00
00
60
90
90
60
ENDCHAR
STARTCHAR char111
ENCODING 8801
SWIDTH 14000 0
DWIDTH 14 0
BBX 12 8 1 3
BITMAP
0180
03C0
0620
0C30
1830
30E0
4000
8000
ENDCHAR
STARTCHAR char111
ENCODING 8802
SWIDTH 14000 0
DWIDTH 14 0
BBX 12 20 1 -9
BITMAP
0180
03C0
0620
0C30
1830
30E0
4000
8000
0000
0000
0000
0000
0000
0780
0F80
1080
1080
1100
0380
0040
ENDCHAR
STARTCHAR char116
ENCODING 8803
SWIDTH 14000 0
DWIDTH 14 0
BBX 6 10 3 4
BITMAP
20
20
20
10
10
48
48
30
84
78
ENDCHAR
STARTCHAR char115
ENCODING 8804
SWIDTH 14000 0
DWIDTH 14 0
BBX 6 6 3 4
BITMAP
30
48
48
30
84
78
ENDCHAR
STARTCHAR char119
ENCODING 8805
SWIDTH 12000 0
DWIDTH 12 0
BBX 8 6 7 -6
BITMAP
E0
F0
08
04
02
01
ENDCHAR
STARTCHAR char118
ENCODING 8806
SWIDTH 16000 0
DWIDTH 16 0
BBX 15 20 1 -5
BITMAP
1F00
3F80
4180
8080
8080
43E0
65F0
2870
0818
0C18
0F18
0718
0018
0010
0010
0010
0018
000C
0006
0006
ENDCHAR
STARTCHAR char120
ENCODING 8807
SWIDTH 14000 0
DWIDTH 14 0
BBX 4 9 4 4
BITMAP
40
40
40
40
40
80
90
90
60
ENDCHAR
STARTCHAR char121
ENCODING 8808
SWIDTH 14000 0
DWIDTH 14 0
BBX 1 8 6 4
BITMAP
80
80
80
80
80
80
80
80
ENDCHAR
STARTCHAR char122
ENCODING 8809
SWIDTH 13000 0
DWIDTH 13 0
BBX 11 9 1 4
BITMAP
FFE0
FFE0
2080
1B00
0400
1B00
2080
FFE0
FFE0
ENDCHAR
STARTCHAR char123
ENCODING 8810
SWIDTH 13000 0
DWIDTH 13 0
BBX 11 8 1 4
BITMAP
7BC0
CE60
8420
8420
8420
C460
4440
0400
ENDCHAR
STARTCHAR char124
ENCODING 8811
SWIDTH 13000 0
DWIDTH 13 0
BBX 11 9 1 3
BITMAP
F1E0
9120
9120
9120
9120
9120
9120
9120
9F20
ENDCHAR
STARTCHAR char125
ENCODING 8812
SWIDTH 13000 0
DWIDTH 13 0
BBX 11 7 1 4
BITMAP
38C0
58A0
88A0
8880
9C80
0380
0080
ENDCHAR
STARTCHAR char8780
ENCODING 8813
SWIDTH 16000 0
DWIDTH 16 0
BBX 14 15 2 0
BITMAP
FFFC
FFFC
FFFC
FFFC
FFFC
FFFC
FFFC
FFFC
FFFC
FFFC
FFFC
FFFC
FFFC
FFFC
FFFC
ENDCHAR
STARTCHAR char8781
ENCODING 8814
SWIDTH 16000 0
DWIDTH 16 0
BBX 14 15 2 0
BITMAP
FFFC
FFFC
FFFC
FFFC
FFFC
FFFC
FFFC
FFFC
FFFC
FFFC
FFFC
FFFC
FFFC
FFFC
FFFC
ENDCHAR
STARTCHAR char8782
ENCODING 8815
SWIDTH 16000 0
DWIDTH 16 0
BBX 14 15 2 0
BITMAP
FFFC
FFFC
FFFC
FFFC
FFFC
FFFC
FFFC
FFFC
FFFC
FFFC
FFFC
FFFC
FFFC
FFFC
FFFC
ENDCHAR
STARTCHAR char8780
ENCODING 8816
SWIDTH 16000 0
DWIDTH 16 0
BBX 14 15 2 0
BITMAP
FFFC
FFFC
FFFC
FFFC
FFFC
FFFC
FFFC
FFFC
FFFC
FFFC
FFFC
FFFC
FFFC
FFFC
FFFC
ENDCHAR
STARTCHAR char8781
ENCODING 8817
SWIDTH 16000 0
DWIDTH 16 0
BBX 14 15 2 0
BITMAP
FFFC
FFFC
FFFC
FFFC
FFFC
FFFC
FFFC
FFFC
FFFC
FFFC
FFFC
FFFC
FFFC
FFFC
FFFC
ENDCHAR
STARTCHAR char8782
ENCODING 8818
SWIDTH 16000 0
DWIDTH 16 0
BBX 14 15 2 0
BITMAP
FFFC
FFFC
FFFC
FFFC
FFFC
FFFC
FFFC
FFFC
FFFC
FFFC
FFFC
FFFC
FFFC
FFFC
FFFC
ENDCHAR
STARTCHAR char8780
ENCODING 8819
SWIDTH 16000 0
DWIDTH 16 0
BBX 14 15 2 0
BITMAP
FFFC
FFFC
FFFC
FFFC
FFFC
FFFC
FFFC
FFFC
FFFC
FFFC
FFFC
FFFC
FFFC
FFFC
FFFC
ENDCHAR
STARTCHAR char8781
ENCODING 8820
SWIDTH 16000 0
DWIDTH 16 0
BBX 14 15 2 0
BITMAP
FFFC
FFFC
FFFC
FFFC
FFFC
FFFC
FFFC
FFFC
FFFC
FFFC
FFFC
FFFC
FFFC
FFFC
FFFC
ENDCHAR
STARTCHAR char8782
ENCODING 8821
SWIDTH 16000 0
DWIDTH 16 0
BBX 14 15 2 0
BITMAP
FFFC
FFFC
FFFC
FFFC
FFFC
FFFC
FFFC
FFFC
FFFC
FFFC
FFFC
FFFC
FFFC
FFFC
FFFC
ENDCHAR
STARTCHAR char8780
ENCODING 8822
SWIDTH 16000 0
DWIDTH 16 0
BBX 14 15 2 0
BITMAP
FFFC
FFFC
FFFC
FFFC
FFFC
FFFC
FFFC
FFFC
FFFC
FFFC
FFFC
FFFC
FFFC
FFFC
FFFC
ENDCHAR
STARTCHAR char8781
ENCODING 8823
SWIDTH 16000 0
DWIDTH 16 0
BBX 14 15 2 0
BITMAP
FFFC
FFFC
FFFC
FFFC
FFFC
FFFC
FFFC
FFFC
FFFC
FFFC
FFFC
FFFC
FFFC
FFFC
FFFC
ENDCHAR
STARTCHAR char8782
ENCODING 8824
SWIDTH 16000 0
DWIDTH 16 0
BBX 14 15 2 0
BITMAP
FFFC
FFFC
FFFC
FFFC
FFFC
FFFC
FFFC
FFFC
FFFC
FFFC
FFFC
FFFC
FFFC
FFFC
FFFC
ENDCHAR
STARTCHAR char8780
ENCODING 8825
SWIDTH 16000 0
DWIDTH 16 0
BBX 14 15 2 0
BITMAP
FFFC
FFFC
FFFC
FFFC
FFFC
FFFC
FFFC
FFFC
FFFC
FFFC
FFFC
FFFC
FFFC
FFFC
FFFC
ENDCHAR
STARTCHAR char8781
ENCODING 8826
SWIDTH 16000 0
DWIDTH 16 0
BBX 14 15 2 0
BITMAP
FFFC
FFFC
FFFC
FFFC
FFFC
FFFC
FFFC
FFFC
FFFC
FFFC
FFFC
FFFC
FFFC
FFFC
FFFC
ENDCHAR
STARTCHAR char8782
ENCODING 8827
SWIDTH 16000 0
DWIDTH 16 0
BBX 14 15 2 0
BITMAP
FFFC
FFFC
FFFC
FFFC
FFFC
FFFC
FFFC
FFFC
FFFC
FFFC
FFFC
FFFC
FFFC
FFFC
FFFC
ENDCHAR
STARTCHAR char8780
ENCODING 8828
SWIDTH 16000 0
DWIDTH 16 0
BBX 14 15 2 0
BITMAP
FFFC
FFFC
FFFC
FFFC
FFFC
FFFC
FFFC
FFFC
FFFC
FFFC
FFFC
FFFC
FFFC
FFFC
FFFC
ENDCHAR
STARTCHAR char8781
ENCODING 8829
SWIDTH 16000 0
DWIDTH 16 0
BBX 14 15 2 0
BITMAP
FFFC
FFFC
FFFC
FFFC
FFFC
FFFC
FFFC
FFFC
FFFC
FFFC
FFFC
FFFC
FFFC
FFFC
FFFC
ENDCHAR
STARTCHAR char8782
ENCODING 8830
SWIDTH 16000 0
DWIDTH 16 0
BBX 14 15 2 0
BITMAP
FFFC
FFFC
FFFC
FFFC
FFFC
FFFC
FFFC
FFFC
FFFC
FFFC
FFFC
FFFC
FFFC
FFFC
FFFC
ENDCHAR
STARTCHAR char1
ENCODING 8993
SWIDTH 14000 0
DWIDTH 14 0
BBX 12 10 1 5
BITMAP
7FF0
7FF0
0A10
0A10
1110
F110
8090
0090
0010
0010
ENDCHAR
STARTCHAR char2
ENCODING 8994
SWIDTH 14000 0
DWIDTH 14 0
BBX 12 12 1 3
BITMAP
3FF0
7FF0
C630
C430
C410
8410
8410
8790
80F0
8010
8000
8000
ENDCHAR
STARTCHAR char3
ENCODING 8995
SWIDTH 13000 0
DWIDTH 13 0
BBX 11 9 1 6
BITMAP
FFE0
FFE0
6320
4120
8120
8120
F920
0620
0020
ENDCHAR
STARTCHAR char4
ENCODING 8996
SWIDTH 13000 0
DWIDTH 13 0
BBX 11 18 1 -3
BITMAP
FFE0
FFE0
4320
8120
8120
F920
0E20
0020
7F80
7F80
3000
2380
47E0
E460
3820
0C20
0440
0080
ENDCHAR
STARTCHAR char5
ENCODING 8997
SWIDTH 12000 0
DWIDTH 12 0
BBX 10 9 2 6
BITMAP
FFC0
FF80
6000
4000
8000
FE00
FF00
0180
0040
ENDCHAR
STARTCHAR char6
ENCODING 8998
SWIDTH 13000 0
DWIDTH 13 0
BBX 11 10 1 5
BITMAP
7F80
7F80
0800
0E00
13C0
E0E0
6020
2020
3840
0F80
ENDCHAR
STARTCHAR char7
ENCODING 8999
SWIDTH 14000 0
DWIDTH 14 0
BBX 12 10 1 5
BITMAP
3FE0
7FC0
0200
1FC0
7FE0
C210
8210
8210
4210
3FE0
ENDCHAR
STARTCHAR char8
ENCODING 9000
SWIDTH 13000 0
DWIDTH 13 0
BBX 11 10 1 5
BITMAP
7FE0
7FE0
6000
4000
5FC0
7FC0
4000
5F80
FFC0
0020
ENDCHAR
STARTCHAR char9001
ENCODING 9001
SWIDTH 16000 0
DWIDTH 16 0
BBX 14 15 2 0
BITMAP
FFFC
FFFC
FFFC
FFFC
FFFC
FFFC
FFFC
FFFC
FFFC
FFFC
FFFC
FFFC
FFFC
FFFC
FFFC
ENDCHAR
STARTCHAR char10
ENCODING 9002
SWIDTH 14000 0
DWIDTH 14 0
BBX 12 14 1 1
BITMAP
3F00
7F00
8180
8080
8100
63C0
24E0
0870
0830
0C30
0720
0040
0080
0100
ENDCHAR
STARTCHAR char11
ENCODING 9003
SWIDTH 12000 0
DWIDTH 12 0
BBX 10 12 1 3
BITMAP
FFC0
7FC0
00C0
00C0
3880
FE80
C100
8100
8000
4000
2000
1800
ENDCHAR
STARTCHAR char12
ENCODING 9004
SWIDTH 12000 0
DWIDTH 12 0
BBX 10 11 1 4
BITMAP
FC00
FE00
8100
C080
BF80
8700
8080
8040
8FC0
BFC0
E000
ENDCHAR
STARTCHAR char13
ENCODING 9005
SWIDTH 12000 0
DWIDTH 12 0
BBX 10 10 1 5
BITMAP
FFC0
7FC0
0100
0080
0040
1FC0
3FC0
6000
4000
8000
ENDCHAR
STARTCHAR char14
ENCODING 9006
SWIDTH 13000 0
DWIDTH 13 0
BBX 11 18 1 -3
BITMAP
7F80
7FC0
0180
0080
1FC0
3F80
6000
7F80
FF80
1000
21C0
27E0
F860
3820
0C60
0440
0180
0200
ENDCHAR
STARTCHAR char15
ENCODING 9007
SWIDTH 12000 0
DWIDTH 12 0
BBX 10 12 1 3
BITMAP
7F00
7F80
0800
0800
0F00
1F80
38C0
7040
4880
8700
8000
8000
ENDCHAR
STARTCHAR char16
ENCODING 9008
SWIDTH 13000 0
DWIDTH 13 0
BBX 11 12 1 3
BITMAP
7FC0
FFC0
C000
4000
6F00
3FC0
20E0
0060
0060
0040
0080
0100
ENDCHAR
STARTCHAR char17
ENCODING 9009
SWIDTH 12000 0
DWIDTH 12 0
BBX 10 12 1 3
BITMAP
0FC0
3FC0
4040
40C0
7F40
3C40
4040
8040
FC40
FF40
01C0
0040
ENDCHAR
STARTCHAR char18
ENCODING 9010
SWIDTH 13000 0
DWIDTH 13 0
BBX 11 10 1 5
BITMAP
7FC0
FF80
2000
4000
FF00
FF80
0180
00C0
0040
0020
ENDCHAR
STARTCHAR char19
ENCODING 9011
SWIDTH 13000 0
DWIDTH 13 0
BBX 11 19 1 -4
BITMAP
7FC0
FFC0
2000
4000
FF00
3F80
00C0
0040
7FA0
7F80
6000
8380
C7C0
78E0
3060
1840
0480
0100
0200
ENDCHAR
STARTCHAR char20
ENCODING 9012
SWIDTH 12000 0
DWIDTH 12 0
BBX 10 13 1 2
BITMAP
7F80
FF00
0800
0800
3800
7C00
CE00
8700
8500
7880
0080
0040
0040
ENDCHAR
STARTCHAR char21
ENCODING 9013
SWIDTH 14000 0
DWIDTH 14 0
BBX 12 10 1 5
BITMAP
7F30
7E70
2030
4010
8010
8010
FE10
FF90
0050
0030
ENDCHAR
STARTCHAR char22
ENCODING 9014
SWIDTH 14000 0
DWIDTH 14 0
BBX 12 10 1 5
BITMAP
7F30
7E70
2070
4190
8210
8410
FE10
FF90
0050
0030
ENDCHAR
STARTCHAR char23
ENCODING 9015
SWIDTH 14000 0
DWIDTH 14 0
BBX 12 10 1 5
BITMAP
7FF0
7FF0
2030
4010
4010
8010
FE10
FF90
0050
0030
ENDCHAR
STARTCHAR char24
ENCODING 9016
SWIDTH 14000 0
DWIDTH 14 0
BBX 12 19 1 -4
BITMAP
7FF0
7FF0
2010
4010
8010
BE10
FF90
0050
0030
3FC0
3FC0
3000
63E0
27F0
1E10
0C30
0420
0040
0080
ENDCHAR
STARTCHAR char25
ENCODING 9017
SWIDTH 14000 0
DWIDTH 14 0
BBX 12 11 1 4
BITMAP
7F30
7E70
0830
0810
3C10
7F10
8390
82D0
4250
3C30
0010
ENDCHAR
STARTCHAR char26
ENCODING 9018
SWIDTH 14000 0
DWIDTH 14 0
BBX 12 12 2 5
BITMAP
0070
00E0
7F80
7F80
0800
0E00
13C0
E0E0
6020
2020
3840
0F80
ENDCHAR
STARTCHAR char27
ENCODING 9019
SWIDTH 15000 0
DWIDTH 15 0
BBX 13 12 1 5
BITMAP
0018
0038
3FE0
7FC0
0200
1FC0
7FE0
C210
8210
8210
4210
3FE0
ENDCHAR
STARTCHAR char28
ENCODING 9020
SWIDTH 15000 0
DWIDTH 15 0
BBX 13 13 1 5
BITMAP
0038
0030
0040
FFC0
FFC0
C000
8000
BF80
FF80
8000
BF00
FF80
0040
ENDCHAR
STARTCHAR char29
ENCODING 9021
SWIDTH 15000 0
DWIDTH 15 0
BBX 13 23 1 -5
BITMAP
0038
0030
0040
FFC0
FFC0
8000
BF80
FF80
8000
9E00
FF80
0040
7F80
7F80
3000
4000
83C0
87E0
F860
3820
0C40
0480
0100
ENDCHAR
STARTCHAR char30
ENCODING 9022
SWIDTH 13000 0
DWIDTH 13 0
BBX 5 9 8 6
BITMAP
08
08
18
28
48
C8
68
38
18
ENDCHAR
STARTCHAR char31
ENCODING 9023
SWIDTH 13000 0
DWIDTH 13 0
BBX 11 13 1 2
BITMAP
0FE0
1FE0
2020
4720
4FC0
D0C0
D0C0
CF60
6020
3020
0020
0020
0020
ENDCHAR
STARTCHAR char32
ENCODING 9024
SWIDTH 13000 0
DWIDTH 13 0
BBX 11 10 1 5
BITMAP
FFE0
FFE0
0060
0020
7F20
7FA0
0060
7F20
FFE0
0060
ENDCHAR
STARTCHAR char252
ENCODING 9025
SWIDTH 15000 0
DWIDTH 15 0
BBX 14 11 1 4
BITMAP
0FE0
3FE0
4060
8020
8020
8020
C040
63C0
27F0
0008
0004
ENDCHAR
STARTCHAR char34
ENCODING 9026
SWIDTH 14000 0
DWIDTH 14 0
BBX 13 9 2 6
BITMAP
0020
0020
F020
8E20
41C8
2010
1860
0FC0
0780
ENDCHAR
STARTCHAR char35
ENCODING 9027
SWIDTH 14000 0
DWIDTH 14 0
BBX 10 5 3 10
BITMAP
0040
0040
FC40
FF40
00C0
ENDCHAR
STARTCHAR char36
ENCODING 9028
SWIDTH 14000 0
DWIDTH 14 0
BBX 12 11 1 4
BITMAP
1E30
3E30
4210
8110
8110
8110
C110
4210
2790
0FF0
0010
ENDCHAR
STARTCHAR char37
ENCODING 9029
SWIDTH 14000 0
DWIDTH 14 0
BBX 12 10 1 5
BITMAP
03F0
07F0
0810
0810
0C10
0FF0
6810
F810
0C10
0010
ENDCHAR
STARTCHAR char37
ENCODING 9030
SWIDTH 14000 0
DWIDTH 14 0
BBX 12 10 1 5
BITMAP
FC00
FE00
8100
8100
8300
FF00
8160
81F0
8300
8000
ENDCHAR
STARTCHAR char39
ENCODING 9031
SWIDTH 13000 0
DWIDTH 13 0
BBX 11 9 1 6
BITMAP
7E60
7E60
2C20
4220
4120
70A0
F860
0420
0220
ENDCHAR
STARTCHAR char40
ENCODING 9032
SWIDTH 13000 0
DWIDTH 13 0
BBX 11 12 1 3
BITMAP
7F80
7F80
2000
4000
83C0
87E0
7860
1820
0C20
0440
0080
0100
ENDCHAR
STARTCHAR char41
ENCODING 9033
SWIDTH 14000 0
DWIDTH 14 0
BBX 12 12 1 3
BITMAP
DF30
DF30
9C10
8E10
9310
9910
8490
8450
8430
7C30
3810
0010
ENDCHAR
STARTCHAR char42
ENCODING 9034
SWIDTH 14000 0
DWIDTH 14 0
BBX 12 18 1 -3
BITMAP
7FF0
7FF0
0A10
1210
7110
E110
0090
0090
7E10
7F10
4100
4100
6300
7F00
4100
43E0
4300
4200
ENDCHAR
STARTCHAR char253
ENCODING 9035
SWIDTH 14000 0
DWIDTH 14 0
BBX 12 12 1 3
BITMAP
7870
98F0
8840
8820
DFF0
1FF0
1010
3010
3F10
3F90
0050
0030
ENDCHAR
STARTCHAR char254
ENCODING 9036
SWIDTH 14000 0
DWIDTH 14 0
BBX 12 10 1 5
BITMAP
6630
E630
4410
4410
8210
8310
FF90
7C50
0030
0010
ENDCHAR
STARTCHAR char255
ENCODING 9037
SWIDTH 14000 0
DWIDTH 14 0
BBX 12 11 1 4
BITMAP
7FC0
7FC0
0600
0200
0200
1E00
7F00
C180
00C0
0020
0010
ENDCHAR
STARTCHAR char9038
ENCODING 9038
SWIDTH 16000 0
DWIDTH 16 0
BBX 14 15 2 0
BITMAP
FFFC
FFFC
FFFC
FFFC
FFFC
FFFC
FFFC
FFFC
FFFC
FFFC
FFFC
FFFC
FFFC
FFFC
FFFC
ENDCHAR
STARTCHAR char8525
ENCODING 9039
SWIDTH 14000 0
DWIDTH 14 0
BBX 12 12 1 3
BITMAP
0030
E070
70C0
3180
1B00
0E00
0E00
1B00
3180
60C0
C060
0020
ENDCHAR
STARTCHAR char8525
ENCODING 9040
SWIDTH 14000 0
DWIDTH 14 0
BBX 12 12 1 3
BITMAP
0630
E670
70C0
3180
1B00
CE30
CE30
1B00
3180
60C0
C660
0620
ENDCHAR
STARTCHAR char9041
ENCODING 9041
SWIDTH 15000 0
DWIDTH 15 0
BBX 13 9 1 5
BITMAP
0F80
3FE0
6030
C018
C018
C018
6030
3FE0
0F80
ENDCHAR
STARTCHAR char9041
ENCODING 9042
SWIDTH 14000 0
DWIDTH 14 0
BBX 12 9 1 5
BITMAP
0F00
30C0
4020
8010
8010
8010
4020
30C0
0F00
ENDCHAR
STARTCHAR char9043
ENCODING 9043
SWIDTH 16000 0
DWIDTH 16 0
BBX 14 16 1 0
BITMAP
0300
07E0
0310
0008
0784
0844
1024
7024
9038
9020
8840
8780
4000
2300
1F80
0300
ENDCHAR
STARTCHAR char9044
ENCODING 9044
SWIDTH 14000 0
DWIDTH 14 0
BBX 12 12 1 3
BITMAP
1F80
2040
4F20
9090
A050
A650
A650
A650
9690
4F20
2640
1F80
ENDCHAR
STARTCHAR char9045
ENCODING 9045
SWIDTH 15000 0
DWIDTH 15 0
BBX 13 25 1 -9
BITMAP
0200
2220
1740
0A80
0A80
0A80
0700
0200
0700
0700
0200
1FC0
3060
4010
7FF0
4010
4010
4010
4010
4010
4010
4010
7FF0
8008
7FF0
ENDCHAR
STARTCHAR char9045
ENCODING 9046
SWIDTH 13000 0
DWIDTH 13 0
BBX 11 28 2 -12
BITMAP
0400
4440
2E80
1500
1500
1500
0E00
0400
1F00
2080
40C0
82A0
B8A0
C520
8620
A420
8920
4840
2480
1F00
0400
0E00
1500
1500
1500
2E80
4440
0400
ENDCHAR
STARTCHAR char9047
ENCODING 9047
SWIDTH 26000 0
DWIDTH 26 0
BBX 25 12 1 -17
BITMAP
00080000
00080000
90140480
6E633B00
31494600
31888600
14889600
129CA400
0FFFF800
12492400
24889200
09084800
ENDCHAR
STARTCHAR char9045
ENCODING 9048
SWIDTH 29000 0
DWIDTH 29 0
BBX 27 28 1 -13
BITMAP
00040000
00444000
002E8000
00150000
00150000
00150000
000E0000
00040000
001F0000
00208000
4040C040
2082A080
1CB8A700
22C52880
FF863FE0
22A42880
1C892700
20484080
40248040
001F0000
00040000
000E0000
00150000
00150000
00150000
002E8000
00444000
00040000
ENDCHAR
STARTCHAR char9049
ENCODING 9049
SWIDTH 13000 0
DWIDTH 13 0
BBX 11 24 1 -9
BITMAP
0400
0400
4440
2E80
1500
1500
1500
0E00
0400
0E00
0400
FFE0
A0A0
5140
5140
4A40
2480
2080
1100
1100
1100
0A00
0A00
0400
ENDCHAR
STARTCHAR char9050
ENCODING 9050
SWIDTH 15000 0
DWIDTH 15 0
BBX 13 15 1 -1
BITMAP
0700
0880
1240
2220
4890
4710
9048
8F88
8008
8008
8008
8008
4010
2020
1FC0
ENDCHAR
STARTCHAR char9045
ENCODING 9051
SWIDTH 13000 0
DWIDTH 13 0
BBX 11 12 2 3
BITMAP
1F00
2080
4040
8020
B9A0
C820
8460
B3A0
8020
4040
2080
1F00
ENDCHAR
STARTCHAR char9045
ENCODING 9052
SWIDTH 13000 0
DWIDTH 13 0
BBX 11 12 2 3
BITMAP
1F00
2280
4140
82A0
98A0
AD20
C620
A820
8920
4440
2280
1F00
ENDCHAR
STARTCHAR char9045
ENCODING 9053
SWIDTH 13000 0
DWIDTH 13 0
BBX 11 12 2 3
BITMAP
1F00
2480
4240
8520
B920
CBA0
A460
8BA0
9020
5240
2880
1F00
ENDCHAR
STARTCHAR char9038
ENCODING 9054
SWIDTH 16000 0
DWIDTH 16 0
BBX 14 15 2 0
BITMAP
FFFC
FFFC
FFFC
FFFC
FFFC
FFFC
FFFC
FFFC
FFFC
FFFC
FFFC
FFFC
FFFC
FFFC
FFFC
ENDCHAR
STARTCHAR char9038
ENCODING 9055
SWIDTH 16000 0
DWIDTH 16 0
BBX 14 15 2 0
BITMAP
FFFC
FFFC
FFFC
FFFC
FFFC
FFFC
FFFC
FFFC
FFFC
FFFC
FFFC
FFFC
FFFC
FFFC
FFFC
ENDCHAR
STARTCHAR char8526
ENCODING 9056
SWIDTH 17000 0
DWIDTH 17 0
BBX 15 15 1 0
BITMAP
0C60
06C0
0380
0300
0780
0CC0
0840
0000
C6C6
6C6C
3838
3030
7878
CCCC
8484
ENDCHAR
STARTCHAR char8782
ENCODING 9057
SWIDTH 16000 0
DWIDTH 16 0
BBX 14 15 2 0
BITMAP
FFFC
FFFC
FFFC
FFFC
FFFC
FFFC
FFFC
FFFC
FFFC
FFFC
FFFC
FFFC
FFFC
FFFC
FFFC
ENDCHAR
STARTCHAR char8782
ENCODING 9058
SWIDTH 16000 0
DWIDTH 16 0
BBX 14 15 2 0
BITMAP
FFFC
FFFC
FFFC
FFFC
FFFC
FFFC
FFFC
FFFC
FFFC
FFFC
FFFC
FFFC
FFFC
FFFC
FFFC
ENDCHAR
STARTCHAR char8782
ENCODING 9059
SWIDTH 16000 0
DWIDTH 16 0
BBX 14 15 2 0
BITMAP
FFFC
FFFC
FFFC
FFFC
FFFC
FFFC
FFFC
FFFC
FFFC
FFFC
FFFC
FFFC
FFFC
FFFC
FFFC
ENDCHAR
STARTCHAR char8782
ENCODING 9060
SWIDTH 16000 0
DWIDTH 16 0
BBX 14 15 2 0
BITMAP
FFFC
FFFC
FFFC
FFFC
FFFC
FFFC
FFFC
FFFC
FFFC
FFFC
FFFC
FFFC
FFFC
FFFC
FFFC
ENDCHAR
STARTCHAR char8782
ENCODING 9061
SWIDTH 16000 0
DWIDTH 16 0
BBX 14 15 2 0
BITMAP
FFFC
FFFC
FFFC
FFFC
FFFC
FFFC
FFFC
FFFC
FFFC
FFFC
FFFC
FFFC
FFFC
FFFC
FFFC
ENDCHAR
STARTCHAR char8782
ENCODING 9062
SWIDTH 16000 0
DWIDTH 16 0
BBX 14 15 2 0
BITMAP
FFFC
FFFC
FFFC
FFFC
FFFC
FFFC
FFFC
FFFC
FFFC
FFFC
FFFC
FFFC
FFFC
FFFC
FFFC
ENDCHAR
STARTCHAR char8782
ENCODING 9063
SWIDTH 16000 0
DWIDTH 16 0
BBX 14 15 2 0
BITMAP
FFFC
FFFC
FFFC
FFFC
FFFC
FFFC
FFFC
FFFC
FFFC
FFFC
FFFC
FFFC
FFFC
FFFC
FFFC
ENDCHAR
STARTCHAR char8782
ENCODING 9064
SWIDTH 16000 0
DWIDTH 16 0
BBX 14 15 2 0
BITMAP
FFFC
FFFC
FFFC
FFFC
FFFC
FFFC
FFFC
FFFC
FFFC
FFFC
FFFC
FFFC
FFFC
FFFC
FFFC
ENDCHAR
STARTCHAR char8782
ENCODING 9065
SWIDTH 16000 0
DWIDTH 16 0
BBX 14 15 2 0
BITMAP
FFFC
FFFC
FFFC
FFFC
FFFC
FFFC
FFFC
FFFC
FFFC
FFFC
FFFC
FFFC
FFFC
FFFC
FFFC
ENDCHAR
STARTCHAR char8782
ENCODING 9066
SWIDTH 16000 0
DWIDTH 16 0
BBX 14 15 2 0
BITMAP
FFFC
FFFC
FFFC
FFFC
FFFC
FFFC
FFFC
FFFC
FFFC
FFFC
FFFC
FFFC
FFFC
FFFC
FFFC
ENDCHAR
STARTCHAR char8782
ENCODING 9067
SWIDTH 16000 0
DWIDTH 16 0
BBX 14 15 2 0
BITMAP
FFFC
FFFC
FFFC
FFFC
FFFC
FFFC
FFFC
FFFC
FFFC
FFFC
FFFC
FFFC
FFFC
FFFC
FFFC
ENDCHAR
STARTCHAR char8782
ENCODING 9068
SWIDTH 16000 0
DWIDTH 16 0
BBX 14 15 2 0
BITMAP
FFFC
FFFC
FFFC
FFFC
FFFC
FFFC
FFFC
FFFC
FFFC
FFFC
FFFC
FFFC
FFFC
FFFC
FFFC
ENDCHAR
STARTCHAR char8782
ENCODING 9069
SWIDTH 16000 0
DWIDTH 16 0
BBX 14 15 2 0
BITMAP
FFFC
FFFC
FFFC
FFFC
FFFC
FFFC
FFFC
FFFC
FFFC
FFFC
FFFC
FFFC
FFFC
FFFC
FFFC
ENDCHAR
STARTCHAR char8782
ENCODING 9070
SWIDTH 16000 0
DWIDTH 16 0
BBX 14 15 2 0
BITMAP
FFFC
FFFC
FFFC
FFFC
FFFC
FFFC
FFFC
FFFC
FFFC
FFFC
FFFC
FFFC
FFFC
FFFC
FFFC
ENDCHAR
STARTCHAR char8782
ENCODING 9071
SWIDTH 16000 0
DWIDTH 16 0
BBX 14 15 2 0
BITMAP
FFFC
FFFC
FFFC
FFFC
FFFC
FFFC
FFFC
FFFC
FFFC
FFFC
FFFC
FFFC
FFFC
FFFC
FFFC
ENDCHAR
STARTCHAR char8782
ENCODING 9072
SWIDTH 16000 0
DWIDTH 16 0
BBX 14 15 2 0
BITMAP
FFFC
FFFC
FFFC
FFFC
FFFC
FFFC
FFFC
FFFC
FFFC
FFFC
FFFC
FFFC
FFFC
FFFC
FFFC
ENDCHAR
STARTCHAR char8782
ENCODING 9073
SWIDTH 16000 0
DWIDTH 16 0
BBX 14 15 2 0
BITMAP
FFFC
FFFC
FFFC
FFFC
FFFC
FFFC
FFFC
FFFC
FFFC
FFFC
FFFC
FFFC
FFFC
FFFC
FFFC
ENDCHAR
STARTCHAR char8782
ENCODING 9074
SWIDTH 16000 0
DWIDTH 16 0
BBX 14 15 2 0
BITMAP
FFFC
FFFC
FFFC
FFFC
FFFC
FFFC
FFFC
FFFC
FFFC
FFFC
FFFC
FFFC
FFFC
FFFC
FFFC
ENDCHAR
STARTCHAR char8782
ENCODING 9075
SWIDTH 16000 0
DWIDTH 16 0
BBX 14 15 2 0
BITMAP
FFFC
FFFC
FFFC
FFFC
FFFC
FFFC
FFFC
FFFC
FFFC
FFFC
FFFC
FFFC
FFFC
FFFC
FFFC
ENDCHAR
STARTCHAR char8782
ENCODING 9076
SWIDTH 16000 0
DWIDTH 16 0
BBX 14 15 2 0
BITMAP
FFFC
FFFC
FFFC
FFFC
FFFC
FFFC
FFFC
FFFC
FFFC
FFFC
FFFC
FFFC
FFFC
FFFC
FFFC
ENDCHAR
STARTCHAR char8782
ENCODING 9077
SWIDTH 16000 0
DWIDTH 16 0
BBX 14 15 2 0
BITMAP
FFFC
FFFC
FFFC
FFFC
FFFC
FFFC
FFFC
FFFC
FFFC
FFFC
FFFC
FFFC
FFFC
FFFC
FFFC
ENDCHAR
STARTCHAR char8782
ENCODING 9078
SWIDTH 16000 0
DWIDTH 16 0
BBX 14 15 2 0
BITMAP
FFFC
FFFC
FFFC
FFFC
FFFC
FFFC
FFFC
FFFC
FFFC
FFFC
FFFC
FFFC
FFFC
FFFC
FFFC
ENDCHAR
STARTCHAR char8782
ENCODING 9079
SWIDTH 16000 0
DWIDTH 16 0
BBX 14 15 2 0
BITMAP
FFFC
FFFC
FFFC
FFFC
FFFC
FFFC
FFFC
FFFC
FFFC
FFFC
FFFC
FFFC
FFFC
FFFC
FFFC
ENDCHAR
STARTCHAR char8782
ENCODING 9080
SWIDTH 16000 0
DWIDTH 16 0
BBX 14 15 2 0
BITMAP
FFFC
FFFC
FFFC
FFFC
FFFC
FFFC
FFFC
FFFC
FFFC
FFFC
FFFC
FFFC
FFFC
FFFC
FFFC
ENDCHAR
STARTCHAR char8782
ENCODING 9081
SWIDTH 16000 0
DWIDTH 16 0
BBX 14 15 2 0
BITMAP
FFFC
FFFC
FFFC
FFFC
FFFC
FFFC
FFFC
FFFC
FFFC
FFFC
FFFC
FFFC
FFFC
FFFC
FFFC
ENDCHAR
STARTCHAR char8782
ENCODING 9082
SWIDTH 16000 0
DWIDTH 16 0
BBX 14 15 2 0
BITMAP
FFFC
FFFC
FFFC
FFFC
FFFC
FFFC
FFFC
FFFC
FFFC
FFFC
FFFC
FFFC
FFFC
FFFC
FFFC
ENDCHAR
STARTCHAR char8782
ENCODING 9083
SWIDTH 16000 0
DWIDTH 16 0
BBX 14 15 2 0
BITMAP
FFFC
FFFC
FFFC
FFFC
FFFC
FFFC
FFFC
FFFC
FFFC
FFFC
FFFC
FFFC
FFFC
FFFC
FFFC
ENDCHAR
STARTCHAR char8782
ENCODING 9084
SWIDTH 16000 0
DWIDTH 16 0
BBX 14 15 2 0
BITMAP
FFFC
FFFC
FFFC
FFFC
FFFC
FFFC
FFFC
FFFC
FFFC
FFFC
FFFC
FFFC
FFFC
FFFC
FFFC
ENDCHAR
STARTCHAR char8782
ENCODING 9085
SWIDTH 16000 0
DWIDTH 16 0
BBX 14 15 2 0
BITMAP
FFFC
FFFC
FFFC
FFFC
FFFC
FFFC
FFFC
FFFC
FFFC
FFFC
FFFC
FFFC
FFFC
FFFC
FFFC
ENDCHAR
STARTCHAR char8782
ENCODING 9086
SWIDTH 16000 0
DWIDTH 16 0
BBX 14 15 2 0
BITMAP
FFFC
FFFC
FFFC
FFFC
FFFC
FFFC
FFFC
FFFC
FFFC
FFFC
FFFC
FFFC
FFFC
FFFC
FFFC
ENDCHAR
STARTCHAR char128
ENCODING 9249
SWIDTH 14000 0
DWIDTH 14 0
BBX 12 20 1 -5
BITMAP
7FF0
7FF0
0A30
0A10
1110
F110
C090
0090
0090
0010
0010
0010
0010
0010
0030
0050
00D0
0050
0030
0010
ENDCHAR
STARTCHAR char129
ENCODING 9250
SWIDTH 14000 0
DWIDTH 14 0
BBX 12 21 1 -6
BITMAP
3FF0
FFF0
C630
C410
C410
8810
8B90
8FD0
8070
8010
8010
8030
8050
80D0
8050
8030
8010
8000
8000
8000
8000
ENDCHAR
STARTCHAR char130
ENCODING 9251
SWIDTH 13000 0
DWIDTH 13 0
BBX 11 21 1 -6
BITMAP
FFE0
FFE0
6320
C320
8120
8120
F920
FD20
0320
0120
0020
0020
0020
0020
0020
0060
00A0
0120
00A0
0060
0020
ENDCHAR
STARTCHAR char131
ENCODING 9252
SWIDTH 13000 0
DWIDTH 13 0
BBX 11 18 1 -3
BITMAP
7F80
7F80
0800
0800
0F00
13C0
E0E0
4060
6020
2020
3040
1F80
0080
0180
0280
0280
0180
0080
ENDCHAR
STARTCHAR char132
ENCODING 9253
SWIDTH 15000 0
DWIDTH 15 0
BBX 13 24 1 -9
BITMAP
3F80
7F80
80C0
80C0
8080
E3E0
65F0
2870
0818
0C18
0F18
0718
0030
0020
0040
0040
0080
0100
0200
0600
0A00
1A00
0600
0200
ENDCHAR
STARTCHAR char133
ENCODING 9254
SWIDTH 13000 0
DWIDTH 13 0
BBX 11 23 1 -8
BITMAP
FFC0
FFC0
C000
C000
C000
4F00
5FC0
61E0
20E0
20E0
0060
00C0
0080
0100
0100
0200
0400
0800
1800
2800
6800
1800
0800
ENDCHAR
STARTCHAR char134
ENCODING 9255
SWIDTH 14000 0
DWIDTH 14 0
BBX 12 22 1 -7
BITMAP
7FC0
FFC0
3000
4000
4000
9E00
FF00
FF80
01C0
00C0
0040
0060
0020
0020
0010
0010
0030
0050
00D0
0050
0030
0010
ENDCHAR
STARTCHAR char135
ENCODING 9256
SWIDTH 13000 0
DWIDTH 13 0
BBX 11 22 1 -4
BITMAP
0060
0060
0080
7F80
7F80
0800
0C00
0F00
13C0
E0E0
4060
6020
2020
3040
1F80
0080
0080
0180
0680
0280
0180
0080
ENDCHAR
STARTCHAR char136
ENCODING 9257
SWIDTH 15000 0
DWIDTH 15 0
BBX 13 22 1 -4
BITMAP
0018
0038
0020
7FE0
7FC0
0600
0200
3FE0
7FF0
C218
8208
8208
8208
C210
7DE0
0040
0040
00C0
0340
0140
00C0
0040
ENDCHAR
STARTCHAR char137
ENCODING 9258
SWIDTH 14000 0
DWIDTH 14 0
BBX 12 22 1 -7
BITMAP
0FF0
1FE0
1030
2010
27A0
4FE0
48E0
C860
C860
E7A0
6020
7030
1010
0010
0010
0010
0030
0050
00D0
0050
0030
0010
ENDCHAR
STARTCHAR char138
ENCODING 9259
SWIDTH 13000 0
DWIDTH 13 0
BBX 11 20 1 -5
BITMAP
FFE0
FFE0
0060
0060
7E20
7F20
01A0
0060
0020
3C20
7F20
E3A0
00E0
0020
0060
00A0
01A0
00A0
0060
0020
ENDCHAR
STARTCHAR char139
ENCODING 9260
SWIDTH 15000 0
DWIDTH 15 0
BBX 13 20 1 -5
BITMAP
7FC0
7FC0
0600
0200
0200
0200
1C00
7F00
FF80
01C0
0060
0030
0010
0008
0018
0028
0068
0028
0018
0008
ENDCHAR
STARTCHAR char140
ENCODING 9261
SWIDTH 14000 0
DWIDTH 14 0
BBX 12 18 1 -3
BITMAP
1E30
3E30
4310
8110
8110
8110
C110
6210
6710
0FD0
0030
0010
0030
0050
00D0
0050
0030
0010
ENDCHAR
STARTCHAR char141
ENCODING 9262
SWIDTH 14000 0
DWIDTH 14 0
BBX 12 22 1 -7
BITMAP
03F0
07F0
0C30
0810
0810
0810
0C30
0BD0
F810
F810
0810
0410
0010
0010
0010
0010
0030
0050
00D0
0050
0030
0010
ENDCHAR
STARTCHAR char142
ENCODING 9263
SWIDTH 15000 0
DWIDTH 15 0
BBX 13 20 1 -5
BITMAP
3F38
7F18
3708
2188
2088
40C8
7848
FC28
0E28
0318
0108
0088
0008
0008
0018
0028
0068
0028
0018
0008
ENDCHAR
STARTCHAR char143
ENCODING 9264
SWIDTH 14000 0
DWIDTH 14 0
BBX 12 22 1 -7
BITMAP
7F80
FF80
2000
4000
83C0
87E0
F870
1C30
0C30
0470
0260
00C0
0080
0100
0200
0400
0C00
1400
3400
1400
0C00
0400
ENDCHAR
STARTCHAR char144
ENCODING 9280
SWIDTH 15000 0
DWIDTH 15 0
BBX 14 20 1 -5
BITMAP
7FF0
7FF0
0A30
0A30
1110
F110
C090
0090
0090
0010
0010
0010
0010
0010
7810
47E4
2008
1810
0FE0
07C0
ENDCHAR
STARTCHAR char145
ENCODING 9281
SWIDTH 16000 0
DWIDTH 16 0
BBX 14 21 1 -6
BITMAP
7FF0
FFF0
C630
C410
8410
8810
8B90
8FD0
8070
8010
8010
BC30
A3E0
9004
8C08
87F0
83E0
8000
8000
8000
8000
ENDCHAR
STARTCHAR char146
ENCODING 9282
SWIDTH 16000 0
DWIDTH 16 0
BBX 14 20 1 -5
BITMAP
7FF0
7FF0
3190
6190
4090
4090
7C90
7E90
0190
0090
0010
0010
0010
0010
F820
47C4
2008
1810
0FE0
07C0
ENDCHAR
STARTCHAR char147
ENCODING 9283
SWIDTH 16000 0
DWIDTH 16 0
BBX 14 18 1 -3
BITMAP
7F30
7E30
3010
2010
6010
4010
5E10
FF90
FFD0
0070
0030
0010
F810
47E4
2008
1810
0E70
07E0
ENDCHAR
STARTCHAR char148
ENCODING 9284
SWIDTH 16000 0
DWIDTH 16 0
BBX 14 18 1 -3
BITMAP
7F30
7E30
2070
4190
4310
8610
BC10
FF10
FF90
0050
0030
0010
F810
67E4
2008
1810
0FF0
07E0
ENDCHAR
STARTCHAR char149
ENCODING 9285
SWIDTH 16000 0
DWIDTH 16 0
BBX 14 18 1 -3
BITMAP
7FF0
7FF0
3010
4010
4010
8010
9F10
FF90
FFD0
0030
0010
0010
F810
47E4
2008
1810
0FF0
07E0
ENDCHAR
STARTCHAR char150
ENCODING 9286
SWIDTH 16000 0
DWIDTH 16 0
BBX 14 18 1 -3
BITMAP
7F30
7E30
0810
0810
3C10
7E10
C710
8390
84D0
7830
0010
0010
F830
47C4
2008
1810
0FF0
07E0
ENDCHAR
STARTCHAR char151
ENCODING 9287
SWIDTH 16000 0
DWIDTH 16 0
BBX 14 25 1 -10
BITMAP
7F30
7E30
2070
4190
4310
8610
BE10
FF10
FF90
0050
0030
0010
FC10
43E4
2008
1810
0E70
07F0
0010
0030
0050
00D0
0050
0030
0010
ENDCHAR
STARTCHAR char152
ENCODING 9296
SWIDTH 14000 0
DWIDTH 14 0
BBX 12 17 1 -2
BITMAP
7FF0
7FF0
0A30
0A30
1110
F110
C110
0090
0090
0010
0010
0010
0010
7810
7F90
01D0
0030
ENDCHAR
STARTCHAR char153
ENCODING 9297
SWIDTH 14000 0
DWIDTH 14 0
BBX 12 20 1 -5
BITMAP
3FF0
FFF0
C630
C430
C410
8810
8810
8B90
8FD0
8070
8010
BE10
BF90
80F0
8010
8000
8000
8000
8000
8000
ENDCHAR
STARTCHAR char154
ENCODING 9298
SWIDTH 13000 0
DWIDTH 13 0
BBX 11 17 1 -2
BITMAP
FFE0
FFE0
6320
C320
8120
8120
F920
FD20
0320
0120
0020
0020
0020
F020
FF20
03A0
0060
ENDCHAR
STARTCHAR char155
ENCODING 9299
SWIDTH 13000 0
DWIDTH 13 0
BBX 11 21 1 -6
BITMAP
FFC0
FFC0
C000
C000
C000
4F00
5FC0
61E0
40E0
20E0
0060
00E0
00C0
0180
0100
0200
0400
0800
7C00
FF00
0080
ENDCHAR
STARTCHAR char156
ENCODING 9300
SWIDTH 12000 0
DWIDTH 12 0
BBX 10 18 1 -3
BITMAP
0FC0
1FC0
2040
4040
40C0
7F40
3840
2040
4040
FC40
FF40
03C0
0040
0040
7C40
7E40
01C0
0040
ENDCHAR
STARTCHAR char157
ENCODING 9301
SWIDTH 14000 0
DWIDTH 14 0
BBX 12 20 1 -5
BITMAP
7FC0
FFC0
3000
6000
4000
BE00
FF80
FF80
01C0
00C0
0060
0060
0020
0020
0020
0010
7E10
7F90
0070
0010
ENDCHAR
STARTCHAR char158
ENCODING 9302
SWIDTH 14000 0
DWIDTH 14 0
BBX 12 17 1 -2
BITMAP
7F30
7E30
2010
6010
4010
4010
8010
BE10
FF10
FF90
00D0
0030
0010
7810
7F90
01D0
0030
ENDCHAR
STARTCHAR char159
ENCODING 9303
SWIDTH 14000 0
DWIDTH 14 0
BBX 12 18 1 -3
BITMAP
7F30
7E30
2030
60D0
4190
4310
8210
9E10
FF10
FF90
0050
0030
0010
7810
7F90
03D0
0030
0010
ENDCHAR
STARTCHAR char160
ENCODING 9304
SWIDTH 14000 0
DWIDTH 14 0
BBX 12 17 1 -2
BITMAP
7FF0
7FF0
2010
6010
4010
4010
8010
9C10
FF10
FF90
0050
0030
0010
7810
7F90
01F0
0010
ENDCHAR
STARTCHAR char161
ENCODING 9305
SWIDTH 14000 0
DWIDTH 14 0
BBX 12 18 1 -3
BITMAP
7F30
7F30
0C10
0410
0410
3C10
7F10
C790
8390
82D0
4450
3830
0010
7C10
7F90
00D0
0030
0010
ENDCHAR
STARTCHAR char162
ENCODING 9306
SWIDTH 14000 0
DWIDTH 14 0
BBX 12 20 1 -5
BITMAP
03F0
07F0
0830
0810
0810
0810
0C30
0BF0
F810
F810
0810
0410
0010
0010
0010
0010
3C10
7F90
00D0
0030
ENDCHAR
STARTCHAR char163
ENCODING 9307
SWIDTH 14000 0
DWIDTH 14 0
BBX 12 18 1 -3
BITMAP
7F30
FF30
6E10
4610
4310
8190
B090
F850
1C30
0610
0210
0110
0010
FC10
FF90
00D0
0030
0010
ENDCHAR
STARTCHAR char164
ENCODING 9308
SWIDTH 14000 0
DWIDTH 14 0
BBX 12 18 1 -3
BITMAP
7F80
FF80
2000
4000
83C0
87E0
F870
1C30
0C30
0460
0240
0080
0100
0200
0400
7E00
FF00
0080
ENDCHAR
STARTCHAR char224
ENCODING 9309
SWIDTH 14000 0
DWIDTH 14 0
BBX 12 17 1 -2
BITMAP
7FE0
7FE0
7000
6000
4000
5FC0
FFC0
8000
8000
BF80
FFC0
0060
0030
7E10
7F90
0050
0030
ENDCHAR
STARTCHAR char225
ENCODING 9310
SWIDTH 16000 0
DWIDTH 16 0
BBX 14 20 1 -2
BITMAP
001C
001C
0010
7FE0
7FE0
7000
6000
4000
5FC0
7FC0
8000
8000
BF80
FFC0
0060
0030
7F90
7FD0
0030
0010
ENDCHAR
STARTCHAR char165
ENCODING 9311
SWIDTH 13000 0
DWIDTH 13 0
BBX 11 24 1 -9
BITMAP
FFE0
FFE0
6320
C320
8120
8120
F920
FD20
0320
0120
0020
0020
0020
F020
FF20
03A0
0060
0020
0060
00A0
01A0
00A0
0060
0020
ENDCHAR
STARTCHAR char166
ENCODING 9312
SWIDTH 14000 0
DWIDTH 14 0
BBX 12 21 1 -6
BITMAP
7FF0
7FF0
0A30
1330
F110
E090
0090
0010
0010
1C30
3E30
4730
8310
8110
C110
C210
6610
6790
0FD0
0030
0010
ENDCHAR
STARTCHAR char167
ENCODING 9313
SWIDTH 14000 0
DWIDTH 14 0
BBX 12 20 1 -5
BITMAP
7FF0
7FF0
2190
4090
5890
7E90
7F90
0090
0010
1C30
3E30
4730
8310
8110
C110
C110
6210
6790
0FD0
0030
ENDCHAR
STARTCHAR char168
ENCODING 9314
SWIDTH 14000 0
DWIDTH 14 0
BBX 12 21 1 -6
BITMAP
7FF0
7FF0
2010
4010
4010
8010
FE10
FF90
00D0
0030
1C30
3E30
4310
8110
8110
C110
4210
6710
2FD0
0070
0010
ENDCHAR
STARTCHAR char169
ENCODING 9315
SWIDTH 14000 0
DWIDTH 14 0
BBX 12 22 1 -7
BITMAP
7FF0
7FF0
0030
3F10
3FD0
0070
0010
1F10
7F90
FFF0
0010
1E30
3F30
4310
8110
8110
C110
4210
6710
2FD0
0030
0010
ENDCHAR
STARTCHAR char170
ENCODING 9316
SWIDTH 15000 0
DWIDTH 15 0
BBX 13 21 1 -6
BITMAP
3FE0
3FC0
0200
0300
1F00
7F80
80E0
0030
0008
1E30
3F30
4730
8310
8110
C110
C310
6610
6790
0FD0
0030
0010
ENDCHAR
STARTCHAR char171
ENCODING 9317
SWIDTH 14000 0
DWIDTH 14 0
BBX 12 21 1 -6
BITMAP
3F30
3E30
3710
2190
4090
7850
7C30
0610
0110
1C30
3E30
4730
8310
8110
C110
C110
6210
6790
0FD0
0030
0010
ENDCHAR
STARTCHAR char172
ENCODING 9505
SWIDTH 14000 0
DWIDTH 14 0
BBX 12 20 1 -5
BITMAP
3FE0
3FC0
0200
7FF0
7FF0
0630
0A30
1330
3110
F110
0090
0090
0010
0010
0010
0010
0010
0010
0010
0010
ENDCHAR
STARTCHAR char173
ENCODING 9506
SWIDTH 13000 0
DWIDTH 13 0
BBX 11 20 1 -5
BITMAP
7FC0
7F80
0400
FFE0
FFE0
3620
4320
8320
8120
B120
F920
FF20
0320
0120
0020
0020
0020
0020
0020
0020
ENDCHAR
STARTCHAR char174
ENCODING 9507
SWIDTH 14000 0
DWIDTH 14 0
BBX 12 15 1 0
BITMAP
3FE0
3FC0
0200
7FE0
7FE0
3800
6000
6000
4000
7F00
7F80
81C0
0060
0020
0010
ENDCHAR
STARTCHAR char175
ENCODING 9508
SWIDTH 14000 0
DWIDTH 14 0
BBX 12 16 1 -1
BITMAP
3FE0
3FC0
0200
7FF0
7FE0
3800
6000
5FE0
7FC0
4000
8000
9F00
BF80
FFC0
0020
0010
ENDCHAR
STARTCHAR char176
ENCODING 9509
SWIDTH 15000 0
DWIDTH 15 0
BBX 13 23 1 -8
BITMAP
3FE0
3FC0
0200
0200
0E00
3F80
61C0
1F60
3F10
4788
8180
8100
C3C0
65E0
0870
1830
1C30
0F30
0620
0040
0080
0100
0200
ENDCHAR
STARTCHAR char177
ENCODING 9510
SWIDTH 13000 0
DWIDTH 13 0
BBX 11 20 1 -5
BITMAP
7FC0
7F80
0400
7FC0
FFC0
C000
8000
C000
4700
7FC0
21E0
20E0
0060
0040
00C0
0080
0100
0100
0200
0400
ENDCHAR
STARTCHAR char178
ENCODING 9511
SWIDTH 15000 0
DWIDTH 15 0
BBX 13 22 1 -7
BITMAP
3FE0
3FC0
0200
7FE0
7FC0
3C00
3000
6000
4000
BE00
FF80
0FC0
00C0
0060
0060
0020
0020
0010
0010
0010
0008
0008
ENDCHAR
STARTCHAR char179
ENCODING 9512
SWIDTH 14000 0
DWIDTH 14 0
BBX 12 22 1 -7
BITMAP
7F80
7F80
0400
7FC0
7F80
1C00
0C00
0400
3C00
7F00
8780
8380
8280
44C0
3840
0040
0040
0020
0020
0010
0010
0010
ENDCHAR
STARTCHAR char180
ENCODING 9513
SWIDTH 15000 0
DWIDTH 15 0
BBX 13 17 1 -2
BITMAP
3FF0
3FF0
0100
3FF8
7FF8
3038
2018
2018
4018
4018
5C08
FF08
FFC8
0048
0028
0018
0008
ENDCHAR
STARTCHAR char181
ENCODING 9514
SWIDTH 15000 0
DWIDTH 15 0
BBX 13 17 1 -2
BITMAP
7F00
7F00
0C00
3F98
7F38
1C38
0418
0418
1C18
7F18
C788
83C8
8248
4428
3818
0008
0008
ENDCHAR
STARTCHAR char182
ENCODING 9515
SWIDTH 14000 0
DWIDTH 14 0
BBX 12 16 1 -1
BITMAP
7F70
7F70
0C40
3FC0
7F80
1C00
0400
0400
0B80
11C0
E0E0
6070
2030
3030
1860
0FC0
ENDCHAR
STARTCHAR char183
ENCODING 9516
SWIDTH 15000 0
DWIDTH 15 0
BBX 14 16 1 -1
BITMAP
3FCC
3FDC
0210
7FF0
7FE0
3800
6000
4FE0
7FC0
4000
8000
8F00
BF80
FFC0
0020
0010
ENDCHAR
STARTCHAR char184
ENCODING 9517
SWIDTH 13000 0
DWIDTH 13 0
BBX 11 24 1 -9
BITMAP
7FC0
7F80
0400
FFE0
FFE0
3620
4320
8320
8120
B120
F920
FF20
0320
0120
0020
0020
0020
0020
0060
00A0
01A0
00A0
0060
0020
ENDCHAR
STARTCHAR char185
ENCODING 9518
SWIDTH 14000 0
DWIDTH 14 0
BBX 12 23 1 -8
BITMAP
7F70
7F70
0C40
3FC0
7F80
1C00
0400
0600
0B80
11C0
E0E0
6070
2030
3020
1840
1FC0
0040
00C0
0140
0340
0140
00C0
0040
ENDCHAR
STARTCHAR char186
ENCODING 9520
SWIDTH 16000 0
DWIDTH 16 0
BBX 14 22 1 -7
BITMAP
3FE0
3FC0
0200
7FF0
7FF0
0630
0A30
1330
3110
F110
8090
0090
0010
0010
0010
0010
F810
4614
21E8
1810
0FE0
03C0
ENDCHAR
STARTCHAR char187
ENCODING 9521
SWIDTH 16000 0
DWIDTH 16 0
BBX 14 22 1 -7
BITMAP
3FE0
3FC0
0200
7FF0
7FF0
1B10
2190
4190
4090
5890
7C90
7F90
0190
0090
0010
0010
F810
4624
21C8
1810
0FE0
03C0
ENDCHAR
STARTCHAR char188
ENCODING 9522
SWIDTH 16000 0
DWIDTH 16 0
BBX 14 21 1 -6
BITMAP
7F00
7F00
0C00
3F98
7F38
1C38
0418
0418
3E18
7F88
C3C8
8248
C428
7818
0008
7808
2774
11C8
0C10
07E0
01C0
ENDCHAR
STARTCHAR char189
ENCODING 9536
SWIDTH 14000 0
DWIDTH 14 0
BBX 12 22 1 -7
BITMAP
1C30
3E30
4210
8210
8210
C210
6210
6790
0FD0
0030
7FF0
7FF0
0E30
0A30
7110
F110
8090
0090
0010
0010
0010
0010
ENDCHAR
STARTCHAR char190
ENCODING 9537
SWIDTH 14000 0
DWIDTH 14 0
BBX 12 23 1 -8
BITMAP
1E30
3E30
4210
8210
8210
C210
6210
6790
0FD0
0030
7FF0
7FF0
3390
6190
4090
7C90
7E90
0390
0090
0010
0010
0010
0010
ENDCHAR
STARTCHAR char191
ENCODING 9538
SWIDTH 15000 0
DWIDTH 15 0
BBX 13 20 1 -5
BITMAP
1E30
3E30
4210
8210
8210
C210
6210
6710
0FD0
0030
3FF0
3FE0
3800
3000
2000
3F80
7FC0
40E0
0030
0008
ENDCHAR
STARTCHAR char192
ENCODING 9539
SWIDTH 15000 0
DWIDTH 15 0
BBX 13 21 1 -6
BITMAP
1E30
3E30
4210
8210
8210
C210
6210
6790
0FD0
0030
1FE0
1FE0
0300
0100
03E0
0C70
3038
1818
0818
0E10
07E0
ENDCHAR
STARTCHAR char193
ENCODING 9540
SWIDTH 15000 0
DWIDTH 15 0
BBX 13 22 1 -7
BITMAP
1E30
3E30
4210
8210
8210
C210
6210
6790
0FD0
0030
3FF0
3FF0
1800
3000
27E0
3FE0
2000
4000
4000
5FC0
7FF0
0008
ENDCHAR
STARTCHAR char194
ENCODING 9541
SWIDTH 14000 0
DWIDTH 14 0
BBX 12 24 1 -9
BITMAP
1E30
3E30
4210
8210
8210
C210
6210
6790
0FD0
0030
3FF0
3FE0
3000
3000
1000
17E0
0870
0830
0030
0030
0060
0040
0080
0100
ENDCHAR
STARTCHAR char195
ENCODING 9542
SWIDTH 15000 0
DWIDTH 15 0
BBX 13 24 1 -9
BITMAP
1C30
3E30
4210
8210
8210
C210
6210
6790
0FD0
0030
3FF0
3FE0
1C00
1000
2000
2F00
3FC0
3FE0
0060
0030
0010
0010
0008
0008
ENDCHAR
STARTCHAR char196
ENCODING 9543
SWIDTH 14000 0
DWIDTH 14 0
BBX 12 21 1 -6
BITMAP
1E30
3E30
4210
8210
8210
C210
6210
6710
0FD0
0030
3F30
7F30
3030
2010
2010
4010
5810
7F10
7F90
0070
0010
ENDCHAR
STARTCHAR char197
ENCODING 9544
SWIDTH 14000 0
DWIDTH 14 0
BBX 12 22 1 -7
BITMAP
1E30
3E30
4210
8210
8210
C210
6210
6790
0FD0
0030
3FF0
7FF0
3030
2010
2010
4010
5E10
7F10
7F90
0050
0030
0010
ENDCHAR
STARTCHAR char198
ENCODING 9545
SWIDTH 15000 0
DWIDTH 15 0
BBX 13 21 1 -6
BITMAP
1E30
3E30
4210
8210
C210
C210
6790
67D0
0030
1FE0
1FE0
0C00
1000
20F0
21F8
1E38
0F18
0310
0130
0020
0040
ENDCHAR
STARTCHAR char199
ENCODING 9552
SWIDTH 14000 0
DWIDTH 14 0
BBX 12 20 1 -5
BITMAP
3F30
7E30
2310
2190
78D0
FC50
0E30
0110
7FF0
7FF0
0E30
0A30
1130
F110
C090
0090
0010
0010
0010
0010
ENDCHAR
STARTCHAR char200
ENCODING 9553
SWIDTH 14000 0
DWIDTH 14 0
BBX 12 21 1 -6
BITMAP
3F30
7E30
2310
2190
78D0
FC50
0630
0110
7FF0
7FF0
3190
2190
4090
4090
7C90
7E90
0190
0090
0010
0010
0010
ENDCHAR
STARTCHAR char201
ENCODING 9554
SWIDTH 14000 0
DWIDTH 14 0
BBX 12 17 1 -2
BITMAP
3E60
7E60
2620
4320
70A0
FC60
0660
0120
3FE0
7FE0
3000
2000
4000
7F80
7FC0
0060
0030
ENDCHAR
STARTCHAR char202
ENCODING 9555
SWIDTH 14000 0
DWIDTH 14 0
BBX 12 24 1 -9
BITMAP
7E70
7E70
2630
4130
F890
7C50
0630
0110
1F10
3F80
4180
4180
4180
77E0
68E0
0870
0C30
0F30
0720
0060
0040
0080
0100
0200
ENDCHAR
STARTCHAR char203
ENCODING 9556
SWIDTH 14000 0
DWIDTH 14 0
BBX 12 22 1 -7
BITMAP
7E70
7E70
2630
4130
7090
F850
0C30
0210
3FF0
7FE0
2000
6000
2000
27C0
1FE0
1070
0830
0830
0060
0040
0080
0100
ENDCHAR
STARTCHAR char204
ENCODING 9557
SWIDTH 15000 0
DWIDTH 15 0
BBX 13 24 1 -9
BITMAP
7E70
3E70
6630
4130
7090
F850
0C30
0210
3FF0
7FE0
1C00
3000
2000
4000
7F00
7FC0
03C0
00E0
0060
0020
0010
0010
0008
0008
ENDCHAR
STARTCHAR char205
ENCODING 9558
SWIDTH 14000 0
DWIDTH 14 0
BBX 12 24 1 -9
BITMAP
7E70
7E70
2630
4130
7090
F850
0C10
0210
3FD0
3FC0
1E00
0400
0400
3E00
7F00
4380
43C0
62C0
3C40
0060
0020
0020
0010
0010
ENDCHAR
STARTCHAR char206
ENCODING 9559
SWIDTH 14000 0
DWIDTH 14 0
BBX 12 19 1 -4
BITMAP
7F30
7F30
3310
4190
78D0
FC50
0630
0110
7F30
7E30
3010
6010
4010
8010
BE10
FF10
FFD0
0030
0010
ENDCHAR
STARTCHAR char207
ENCODING 9560
SWIDTH 14000 0
DWIDTH 14 0
BBX 12 19 1 -4
BITMAP
3F30
7E30
2310
4190
78D0
FC50
0630
0110
7FF0
7FF0
2010
6010
4010
8010
BF10
FF90
FFD0
0030
0010
ENDCHAR
STARTCHAR char208
ENCODING 9561
SWIDTH 14000 0
DWIDTH 14 0
BBX 12 19 1 -4
BITMAP
3F30
7E30
2310
4190
78D0
FC30
0610
0110
7F30
7F30
1C10
0410
0410
3E10
7F10
8790
82D0
4430
3810
ENDCHAR
STARTCHAR char209
ENCODING 9562
SWIDTH 16000 0
DWIDTH 16 0
BBX 14 19 1 -4
BITMAP
7CC0
FCC0
4C40
8240
E140
F8DC
1C5C
0450
0FF0
1FE0
0100
0100
01E0
0678
3C1C
080C
0C08
0608
03F0
ENDCHAR
STARTCHAR char210
ENCODING 9568
SWIDTH 15000 0
DWIDTH 15 0
BBX 13 22 1 -7
BITMAP
3F30
3E30
2310
4190
7850
3E30
0710
0010
7FF0
7FF0
0E30
7330
F110
0090
0090
0010
F810
4610
31E8
1C10
0FE0
03C0
ENDCHAR
STARTCHAR char211
ENCODING 9569
SWIDTH 14000 0
DWIDTH 14 0
BBX 12 24 1 -9
BITMAP
7E60
7C60
4620
8320
F0A0
7C60
0620
0120
FFE0
FFE0
3620
4320
8120
F120
FD20
0720
0120
0020
0020
F820
47D0
3020
1FC0
0780
ENDCHAR
STARTCHAR char212
ENCODING 9570
SWIDTH 15000 0
DWIDTH 15 0
BBX 13 23 1 -8
BITMAP
3F30
7E70
2310
4190
78D0
FC50
0630
0110
7F30
7E30
2010
4010
4010
9F10
FF90
FFD0
0030
0010
7C10
23E8
1810
0FE0
03C0
ENDCHAR
STARTCHAR char213
ENCODING 9571
SWIDTH 15000 0
DWIDTH 15 0
BBX 13 23 1 -8
BITMAP
3F30
7E70
2310
4190
78D0
FC50
0630
0110
7FF0
7FF0
2010
4010
4010
8010
FF90
FFD0
0030
0010
7C10
23E8
1810
0FE0
03C0
ENDCHAR
STARTCHAR char214
ENCODING 9572
SWIDTH 16000 0
DWIDTH 16 0
BBX 14 24 1 -9
BITMAP
3F30
7E70
2310
4190
78D0
FC30
0610
0110
7F30
7F30
3C30
0810
3C10
7E10
8710
8590
78D0
0030
0010
7C14
23E8
1810
0FE0
03C0
ENDCHAR
STARTCHAR char215
ENCODING 9584
SWIDTH 14000 0
DWIDTH 14 0
BBX 12 23 1 -8
BITMAP
3F30
3E30
2310
4190
78D0
FC50
0E30
0110
7FF0
7FF0
0E30
1A30
1130
F110
C090
0090
0010
0010
0010
7F10
7FD0
0030
0010
ENDCHAR
STARTCHAR char216
ENCODING 9585
SWIDTH 14000 0
DWIDTH 14 0
BBX 12 23 1 -8
BITMAP
3F30
3E30
2310
4190
78D0
FC50
0E30
0110
7FF0
7FF0
3190
2190
4090
4090
7C90
7E90
0190
0090
0010
7F10
7FD0
0030
0010
ENDCHAR
STARTCHAR char217
ENCODING 9586
SWIDTH 14000 0
DWIDTH 14 0
BBX 12 26 1 -11
BITMAP
7E70
7E70
2630
4130
F090
F850
0C30
0210
3FD0
3FC0
1E00
0400
0400
3E00
7F00
8380
81C0
42C0
3C60
0020
0020
0010
3F10
3FD0
0030
0010
ENDCHAR
STARTCHAR char218
ENCODING 9587
SWIDTH 14000 0
DWIDTH 14 0
BBX 12 22 1 -7
BITMAP
3F30
7E30
2310
4190
B8D0
FC50
0630
0110
7F30
7E30
2010
4010
4010
8010
FF10
FF90
0050
0030
F810
FF10
03D0
0030
ENDCHAR
STARTCHAR char219
ENCODING 9588
SWIDTH 14000 0
DWIDTH 14 0
BBX 12 23 1 -8
BITMAP
3F30
7E30
2310
4190
78D0
FC50
0630
0110
7FF0
7FF0
2010
4010
4010
8010
FF10
FF90
0070
0010
F810
FF10
03D0
0030
0010
ENDCHAR
STARTCHAR char220
ENCODING 9589
SWIDTH 14000 0
DWIDTH 14 0
BBX 12 22 1 -7
BITMAP
3F30
7E30
2310
2190
78D0
FC50
0630
0110
7F30
7F30
1C10
0410
3E10
7F10
8390
84D0
7830
0010
7810
7F10
03D0
0030
ENDCHAR
ENDFONT
